<svg width="396" height="129" viewBox="0 0 396 129" fill="none" xmlns="http://www.w3.org/2000/svg">
<g clip-path="url(#clip0_149_682)">
<path d="M128.656 118.953C128.271 118.771 127.875 118.714 127.62 119.672C127.089 121.594 125.016 120.432 124.5 122.979C124.391 123.505 124.375 123.547 123.917 124.307C121.854 127.745 127.318 127.036 126.865 123.786C126.755 122.979 126.812 122.651 127.797 122.042C128.87 121.38 128.917 121.01 128.917 120.141C128.927 119.125 129.089 119.161 128.656 118.953Z" fill="#F27D51"/>
<path d="M132.073 110.495C132.62 110.641 132.682 110.599 132.693 109.682C132.714 107.823 133.495 108.089 133.813 105.698C133.813 104.224 134.38 104.411 134.38 103.734C134.38 101.526 131.917 102.052 131.542 103.771C131.302 104.818 132.214 105.99 131.99 107.479C131.938 107.839 131.542 107.849 131.302 108.604C131.224 109.365 131.427 109.474 131.615 109.922C131.859 110.49 131.719 110.406 132.073 110.495Z" fill="#F27D51"/>
<path d="M133.927 110.458C133.771 110.776 133.708 111.146 133.792 111.297C133.854 111.417 134.406 111.766 134.469 111.766C134.542 111.766 134.63 111.646 134.677 111.474C134.786 111.099 135.13 110.781 135.771 110.474C137.453 109.672 137.245 109.016 137.599 108.307C137.958 107.589 139.698 107.437 140.365 106.292C141.484 104.333 138.792 102.51 137.177 105.615C136.302 107.307 135.651 106.292 135.5 108.208C135.385 109.573 134.328 109.641 133.927 110.458Z" fill="#F27D51"/>
<path d="M133.927 110.458C133.771 110.776 133.708 111.146 133.792 111.297C133.854 111.417 134.406 111.766 134.469 111.766C134.542 111.766 134.63 111.646 134.677 111.474C134.786 111.099 135.13 110.781 135.771 110.474C137.453 109.672 137.245 109.016 137.599 108.307C137.958 107.589 139.698 107.437 140.365 106.292C141.484 104.333 138.792 102.51 137.177 105.615C136.302 107.307 135.651 106.292 135.5 108.208C135.385 109.573 134.328 109.641 133.927 110.458Z" fill="#F27D51"/>
<path d="M131.609 120.365C131.573 120.01 131.427 119.667 131.281 119.583C131.161 119.516 130.51 119.51 130.458 119.542C130.396 119.583 130.385 119.729 130.432 119.901C130.542 120.276 130.417 120.729 130.036 121.323C129.031 122.901 129.557 123.344 129.63 124.13C129.703 124.932 128.307 125.979 128.349 127.307C128.427 129.562 131.682 129.687 131.411 126.198C131.26 124.297 132.349 124.818 131.464 123.109C130.839 121.885 131.703 121.271 131.609 120.365Z" fill="#F27D51"/>
<path d="M128.255 116.568C128.594 117.083 129.323 117.771 130.24 117.865C134.615 118.333 135.099 111.974 130.594 111.995C128.656 111.995 126.901 114.469 128.255 116.568Z" fill="#F27D51"/>
<path d="M127.396 107.057C127.568 108.542 128.87 108.208 128.896 109.745C128.901 110.13 128.943 110.271 129.109 110.49C129.182 110.578 129.26 110.646 129.286 110.641C129.729 110.484 130.26 110.609 130.042 110.141C129.682 109.385 130.109 108.974 130.026 108.255C129.927 107.417 129.135 106.969 129.193 106.344C129.255 105.672 129.776 104.833 129.672 104.109C129.573 103.401 129.76 103.099 129.115 102.703C128.443 102.297 127.88 102.557 127.37 103.078C126.604 103.865 126.391 104.729 126.74 105.609C127.078 106.443 127.297 106.271 127.396 107.063V107.057Z" fill="#F27D51"/>
<path d="M138.219 111.802C137.156 112.224 136.052 111.203 135.292 112.464C134.958 113.026 135.036 113.063 135.12 113.469C135.135 113.589 135.281 113.943 135.349 113.948C135.505 114.026 136.385 112.984 137.297 113.531C137.979 113.943 138.016 113.828 138.375 113.787C139.49 113.271 139.417 113.208 140.109 112.464C141.052 111.438 141.469 112.396 142.49 111.51C142.885 111.162 143.313 110.781 143.391 110.302C143.391 110.302 143.495 109.87 143.448 109.63C143.214 108.521 142.646 108.104 141.635 108.646C140.839 109.073 140.688 108.802 139.885 109.281C138.583 110.063 139.167 111.427 138.219 111.802Z" fill="#F27D51"/>
<path d="M120.724 112.219C121.708 112.615 121.927 113.792 123.677 113.427C124.495 113.255 125.307 113.469 125.833 113.818C126.255 114.094 126.229 114.01 126.557 113.26C126.365 112.912 126.339 112.818 126.026 112.563C124.339 111.151 123.318 113.042 122.328 110.75C122 110 122.016 109.328 121.604 108.99C120.635 108.198 119.766 108.307 119.453 108.448C118.391 108.906 118.224 110.005 118.708 110.75C119.333 111.703 119.604 111.776 120.724 112.219Z" fill="#F27D51"/>
<path d="M141.568 114.844C140.74 115.042 140.443 114.885 140.104 114.75C139.302 114.427 138.625 114.427 137.958 115.052C137.089 115.854 136.859 115.24 135.99 115.255C135.339 115.276 135.286 115.448 135.224 115.818C135.099 116.594 135.37 115.865 136.604 116.646C138.302 117.719 138.797 116.651 139.651 117.042C140.12 117.255 140.229 117.708 141.01 117.854C141.724 117.99 142.521 117.094 143.156 117.042C144.25 117.042 144.552 116.031 144.193 115.255C143.875 114.573 142.349 114.656 141.568 114.844Z" fill="#F27D51"/>
<path d="M135.771 123.224C135.427 122.797 135.453 122.568 135.443 121.271C134.719 119.807 134.182 120.396 133.568 119.37C133.479 119.214 133.38 119.068 133.344 119.042C133.255 118.969 132.995 119.016 132.786 119.146C132.182 119.521 132.927 120.385 133.359 120.943C133.766 121.484 133.932 121.672 133.583 122.635C133.25 123.547 133.625 124.469 134.281 124.964C135.005 125.516 135.125 126.417 136.464 126.375C137.078 126.359 137.307 126.109 137.26 125.182C137.198 123.979 136.307 123.901 135.771 123.224Z" fill="#F27D51"/>
<path d="M141.443 121.078C139.885 120.349 139.333 120.849 138.99 119.802C138.115 117.031 136.745 118.5 135.036 117.625C134.87 117.536 134.786 117.516 134.74 117.542C134.641 117.594 134.318 118.068 134.318 118.151C134.318 118.297 134.521 118.63 134.724 118.807C134.969 119.031 135.406 119.234 136 119.401C136.812 119.63 136.99 119.849 137.13 120.818C137.5 123.286 138.255 121.781 139.135 123.109C139.958 124.37 141.094 124.438 141.781 124.036C142.568 123.589 142.687 121.661 141.443 121.078Z" fill="#F27D51"/>
<path d="M125.599 119.828C126.354 119.469 126.552 118.755 126.948 118.245C127.125 118.026 127.125 118.021 127.068 117.896C126.953 117.667 126.693 117.365 126.599 117.365C126.187 117.365 125.276 118.365 125.068 118.464C124.792 118.609 124.375 118.656 123.656 118.635C122.318 118.594 122.036 118.724 121.396 119.698C120.5 121.057 119.859 119.922 119.214 120.917C119.057 121.146 119.073 121.5 119.089 121.786C119.224 123.62 121.281 123.427 122.292 122.505C122.609 122.219 122.828 121.912 123.135 121.302C123.953 119.677 124.344 120.427 125.599 119.828Z" fill="#F27D51"/>
<path d="M120.401 117.208C121.25 117.135 121.865 116.38 122.516 116.271C123.38 116.125 124.031 116.901 124.891 116.828C125.141 116.807 126.172 116.563 126.193 115.927C126.234 114.953 125.703 115.688 124.667 115.531C123.682 115.385 123.443 114.458 122.292 114.255C121.682 114.151 121.094 114.609 120.562 114.531C120.062 114.458 119.781 114.005 118.995 113.99C118.427 113.984 118.073 114.161 117.854 114.568C117.646 114.948 117.641 115.068 117.812 115.589C117.943 115.984 117.979 116.052 118.135 116.234C118.453 116.604 119.479 117.286 120.401 117.208Z" fill="#F27D51"/>
<path d="M122.661 107.521C122.974 108.344 123.583 108.479 124.146 108.609C125.297 108.88 125.292 109.115 125.594 110.427C125.823 111.458 126.464 111.557 127.344 111.828C127.964 111.422 127.906 111.411 127.521 111.115C126.068 110.021 127.432 108.932 126.37 107.297C125.521 105.979 125.062 106.443 124.146 105.578C122.844 104.354 122.187 106.089 122.531 106.984L122.661 107.521Z" fill="#F27D51"/>
<path d="M38.799 74.8333C38.799 71.7239 38.2573 69.0364 37.174 66.7708C36.0907 64.5104 34.6323 62.5312 32.799 60.8333C30.9657 59.1406 28.9032 57.5989 26.6115 56.2083C24.3302 54.8229 21.9761 53.4531 19.549 52.1041C17.1167 50.7604 14.7573 49.3229 12.4657 47.7916C10.1844 46.2656 8.13232 44.4895 6.29899 42.4583C4.46566 40.4323 3.00732 38.0416 1.92399 35.2916C0.840655 32.5312 0.298988 29.2656 0.298988 25.5C0.298988 20.3645 1.47086 16.1458 3.81982 12.8541C6.1792 9.55204 9.38232 7.09892 13.424 5.49996C17.4761 3.90621 22.0282 3.10413 27.0698 3.10413C29.6115 3.10413 31.9136 3.20829 33.9865 3.41663C36.0698 3.62496 38.1427 3.84892 40.2157 4.08329C42.2834 4.32288 44.5959 4.43746 47.1532 4.43746C47.8459 4.43746 48.6011 4.33329 49.424 4.12496C50.2573 3.91663 50.8615 3.57808 51.2365 3.10413H51.9448V28.75H51.2365C50.9969 26.8229 50.3615 24.75 49.3198 22.5416C48.2886 20.3229 46.9657 18.1562 45.3407 16.0416C43.7157 13.9166 41.8875 11.9739 39.8615 10.2083C37.8302 8.43225 35.7209 7.03121 33.5282 5.99996C31.3459 4.95829 29.174 4.43746 27.0073 4.43746C24.3094 4.43746 22.0334 5.28121 20.174 6.95829C18.325 8.62496 17.4032 10.9895 17.4032 14.0416C17.4032 17.0156 17.9448 19.5833 19.0282 21.75C20.1115 23.9166 21.5802 25.8125 23.4448 27.4375C25.3042 29.0625 27.3719 30.552 29.6532 31.8958C31.9448 33.2448 34.325 34.5625 36.799 35.8541C39.2677 37.1458 41.6427 38.5625 43.924 40.1041C46.2157 41.6354 48.2886 43.375 50.1532 45.3333C52.0125 47.2812 53.4865 49.5989 54.5698 52.2916C55.6532 54.9739 56.1948 58.125 56.1948 61.75C56.1948 65.2395 55.5073 68.4791 54.1323 71.4791C52.7677 74.4687 50.8511 77.0729 48.3823 79.2916C45.9084 81.5 42.9969 83.2291 39.6532 84.4791C36.3042 85.7135 32.6532 86.3333 28.6948 86.3333C24.8302 86.3333 21.3302 86.0416 18.1948 85.4583C15.0698 84.875 12.1219 83.9583 9.36149 82.7083C6.61149 81.4583 3.8667 79.8437 1.13232 77.8541V51.1458H1.98649C1.98649 52.1354 2.3042 53.6406 2.94482 55.6666C3.58024 57.6979 4.48649 59.9895 5.65316 62.5416C6.83024 65.0833 8.23649 67.6562 9.86149 70.25C11.4865 72.8333 13.2834 75.2291 15.2573 77.4375C17.2417 79.6458 19.3511 81.4375 21.5907 82.8125C23.825 84.177 26.1427 84.8541 28.549 84.8541C31.1844 84.8541 33.2469 84.4114 34.7365 83.5208C36.2209 82.6198 37.2677 81.4166 37.8823 79.9166C38.4917 78.4062 38.799 76.7083 38.799 74.8333Z" fill="#F27D51"/>
<path d="M60.916 34.3333V33.625C62.7077 33.625 64.7389 33.4531 67.0202 33.1041C69.3118 32.7448 71.6243 32.2864 73.9577 31.7291C76.291 31.1614 78.4577 30.552 80.4577 29.8958C82.4577 29.2291 84.067 28.5937 85.291 27.9791C85.4264 27.8854 85.5827 27.802 85.7493 27.7291C85.916 27.6614 86.0462 27.5989 86.1452 27.5416H86.8535V70.2291C86.8535 71.5104 86.9785 72.8437 87.2285 74.2291C87.4889 75.6198 87.9993 76.7864 88.7493 77.7291C89.5098 78.6614 90.6243 79.125 92.0827 79.125C93.5827 79.125 94.8587 78.6979 95.916 77.8333C96.9837 76.9583 97.8118 75.8125 98.3952 74.3958C98.9889 72.9791 99.291 71.4739 99.291 69.875V43.6666C99.291 41.4479 99.0202 39.6562 98.4785 38.2916C97.9368 36.9323 97.2962 35.9323 96.5618 35.2916C95.8379 34.6562 95.1712 34.3333 94.5618 34.3333V33.625C96.3379 33.625 98.3639 33.4531 100.645 33.1041C102.937 32.7448 105.249 32.2864 107.583 31.7291C109.916 31.1614 112.083 30.552 114.083 29.8958C116.093 29.2291 117.713 28.5937 118.937 27.9791C119.072 27.8854 119.229 27.802 119.395 27.7291C119.562 27.6614 119.687 27.5989 119.77 27.5416H120.479V70.2291C120.479 72.4375 120.749 74.2291 121.291 75.6041C121.833 76.9687 122.479 77.9687 123.229 78.6041C123.989 79.2448 124.656 79.5625 125.229 79.5625V80.2708C123.437 80.2708 121.395 80.4739 119.104 80.875C116.822 81.2656 114.525 81.7604 112.208 82.3541C109.9 82.9375 107.749 83.552 105.749 84.1875C103.749 84.8281 102.109 85.401 100.833 85.9166C100.51 86.052 100.234 86.1927 99.9993 86.3333H99.291V75.6666C98.3848 77.5573 97.0879 79.3125 95.3952 80.9375C93.6973 82.5625 91.7077 83.8698 89.416 84.8541C87.1348 85.8385 84.6556 86.3333 81.9785 86.3333C78.3952 86.3333 75.5045 85.7135 73.3118 84.4791C71.1139 83.2291 69.4785 81.6406 68.3952 79.7083C67.3118 77.7812 66.5827 75.7291 66.2077 73.5625C65.8327 71.3854 65.6452 69.375 65.6452 67.5416V43.6666C65.6452 41.4479 65.3743 39.6562 64.8327 38.2916C64.291 36.9323 63.6504 35.9323 62.916 35.2916C62.192 34.6562 61.5254 34.3333 60.916 34.3333Z" fill="#F27D51"/>
<path d="M127.474 33.5625C129.266 33.5625 131.297 33.3645 133.578 32.9583C135.87 32.5573 138.167 32.0625 140.474 31.4791C142.776 30.8854 144.933 30.2604 146.933 29.6041C148.943 28.9375 150.584 28.3698 151.849 27.8958C152.224 27.7604 152.506 27.6198 152.703 27.4791H153.412V38.1458C154.297 36.2604 155.589 34.5 157.287 32.875C158.98 31.25 160.964 29.9479 163.245 28.9583C165.537 27.9739 168.026 27.4791 170.724 27.4791C174.349 27.4791 177.245 28.1041 179.412 29.3541C181.578 30.6041 183.203 32.1979 184.287 34.125C185.37 36.0573 186.099 38.1041 186.474 40.2708C186.849 42.4375 187.037 44.4375 187.037 46.2708V75.1041C187.037 77.7031 187.391 79.7812 188.099 81.3333C188.808 82.8906 189.985 83.875 191.641 84.2916V85H161.245V84.2916C162.896 83.875 164.078 82.8906 164.787 81.3333C165.495 79.7812 165.849 77.7031 165.849 75.1041V43.5833C165.849 42.2656 165.714 40.927 165.453 39.5625C165.188 38.2031 164.688 37.052 163.953 36.1041C163.23 35.1614 162.12 34.6875 160.62 34.6875C159.162 34.6875 157.891 35.125 156.808 36C155.724 36.8645 154.881 38 154.287 39.4166C153.703 40.8333 153.412 42.3437 153.412 43.9375V75.1041C153.412 77.7031 153.766 79.7812 154.474 81.3333C155.183 82.8906 156.355 83.875 157.995 84.2916V85H127.62V84.2916C129.256 83.875 130.433 82.8906 131.141 81.3333C131.849 79.7812 132.203 77.7031 132.203 75.1041V43.5833C132.203 41.375 131.933 39.5937 131.391 38.2291C130.849 36.8541 130.209 35.8541 129.474 35.2291C128.75 34.5937 128.084 34.2708 127.474 34.2708V33.5625Z" fill="#F27D51"/>
<path d="M193.891 34.2708V33.5625C195.818 33.5625 197.996 33.3541 200.412 32.9375C202.839 32.5104 205.277 31.9739 207.725 31.3333C210.183 30.6979 212.423 30.0364 214.454 29.3541C216.48 28.677 218.037 28.052 219.121 27.4791H219.829V37.4375C220.381 36.177 221.298 34.7656 222.579 33.2083C223.855 31.6562 225.542 30.3125 227.641 29.1875C229.735 28.052 232.214 27.4791 235.079 27.4791C238.522 27.4791 241.36 28.2083 243.6 29.6666C245.834 31.125 247.506 32.9895 248.621 35.25C249.73 37.5156 250.287 39.8698 250.287 42.3125C250.287 46.3281 249.173 49.5156 246.954 51.875C244.746 54.2239 241.829 55.3958 238.204 55.3958C234.621 55.3958 231.714 54.2916 229.496 52.0833C227.287 49.8645 226.183 46.9583 226.183 43.375C226.183 41.9583 226.355 40.8541 226.704 40.0625C227.063 39.2604 227.417 38.552 227.766 37.9375C228.126 37.3281 228.308 36.5989 228.308 35.75C228.308 34.7083 227.735 34.1875 226.6 34.1875C225.808 34.1875 224.871 34.5364 223.787 35.2291C222.704 35.9114 221.772 36.8906 220.996 38.1666C220.214 39.4323 219.829 41 219.829 42.875V75.1041C219.829 77.7031 220.183 79.7812 220.891 81.3333C221.6 82.8906 222.772 83.875 224.412 84.2916V85H194.037V84.2916C195.673 83.875 196.85 82.8906 197.558 81.3333C198.266 79.7812 198.621 77.7031 198.621 75.1041V43.5833C198.621 41.375 198.35 39.5937 197.808 38.2291C197.266 36.8541 196.626 35.8541 195.891 35.2291C195.167 34.5937 194.501 34.2708 193.891 34.2708Z" fill="#F27D51"/>
<path d="M252.536 33.5624C254.328 33.5624 256.359 33.3645 258.64 32.9583C260.932 32.5572 263.229 32.0624 265.536 31.4791C267.838 30.8853 269.994 30.2603 271.994 29.6041C274.005 28.9374 275.646 28.3697 276.911 27.8958C277.286 27.7603 277.567 27.6197 277.765 27.4791H278.474V75.1041C278.474 77.703 278.828 79.7812 279.536 81.3333C280.244 82.8905 281.416 83.8749 283.057 84.2916V84.9999H252.682V84.2916C254.317 83.8749 255.494 82.8905 256.203 81.3333C256.911 79.7812 257.265 77.703 257.265 75.1041V43.5833C257.265 41.3749 256.994 39.5937 256.453 38.2291C255.911 36.8541 255.271 35.8541 254.536 35.2291C253.812 34.5937 253.146 34.2708 252.536 34.2708V33.5624ZM254.786 13.3541C254.786 10.953 255.375 8.77075 256.557 6.81242C257.734 4.85409 259.312 3.28638 261.286 2.10409C263.271 0.927001 265.442 0.333252 267.807 0.333252C270.208 0.333252 272.396 0.927001 274.369 2.10409C276.354 3.28638 277.932 4.85409 279.099 6.81242C280.276 8.77075 280.869 10.953 280.869 13.3541C280.869 15.7603 280.276 17.9478 279.099 19.9166C277.932 21.8905 276.354 23.4687 274.369 24.6458C272.396 25.828 270.208 26.4166 267.807 26.4166C265.442 26.4166 263.271 25.828 261.286 24.6458C259.312 23.4687 257.734 21.8905 256.557 19.9166C255.375 17.9478 254.786 15.7603 254.786 13.3541Z" fill="#F27D51"/>
<path d="M319.592 79.5625C319.592 77.4948 319.013 75.7031 317.862 74.1875C316.706 72.677 315.175 71.3229 313.258 70.125C311.352 68.9166 309.258 67.75 306.967 66.625C304.685 65.5 302.394 64.3073 300.092 63.0416C297.784 61.7656 295.675 60.3125 293.758 58.6875C291.852 57.052 290.326 55.1041 289.175 52.8541C288.019 50.5937 287.446 47.9062 287.446 44.7916C287.446 40.9323 288.498 37.7291 290.612 35.1875C292.737 32.6354 295.529 30.7083 298.987 29.4166C302.456 28.125 306.243 27.4791 310.342 27.4791C314.008 27.4791 317.18 27.6979 319.862 28.125C322.555 28.5416 324.915 28.75 326.946 28.75C328.071 28.75 329.159 28.6666 330.217 28.5C331.284 28.3333 332.123 27.9948 332.737 27.4791H333.446V48.75H332.737C332.071 46.625 331.133 44.427 329.925 42.1458C328.727 39.8541 327.321 37.7239 325.696 35.75C324.071 33.7656 322.326 32.1562 320.467 30.9166C318.602 29.6666 316.665 29.0416 314.654 29.0416C312.665 29.0416 310.93 29.6041 309.446 30.7291C307.956 31.8541 307.217 33.4323 307.217 35.4583C307.217 37.4479 307.743 39.1666 308.8 40.625C309.868 42.0833 311.269 43.4062 313.008 44.5833C314.758 45.7656 316.68 46.8958 318.779 47.9791C320.873 49.0625 322.972 50.2083 325.071 51.4166C327.165 52.6145 329.081 53.9895 330.821 55.5416C332.571 57.0833 333.972 58.9166 335.029 61.0416C336.097 63.1666 336.633 65.6666 336.633 68.5416C336.633 71.4166 335.956 73.9583 334.612 76.1666C333.263 78.375 331.456 80.2395 329.196 81.75C326.946 83.2656 324.425 84.4062 321.633 85.1666C318.852 85.9427 316.055 86.3333 313.237 86.3333C309.93 86.3333 306.894 86.1666 304.133 85.8333C301.383 85.5104 298.737 84.8854 296.196 83.9375C293.654 82.9948 291.04 81.6041 288.362 79.7708V63.0833H289.071C290.388 65.7239 291.93 68.3437 293.696 70.9375C295.456 73.5364 297.388 75.8854 299.487 77.9791C301.581 80.0625 303.8 81.7448 306.133 83.0208C308.467 84.302 310.852 84.9375 313.3 84.9375C315.092 84.9375 316.581 84.5 317.779 83.625C318.987 82.75 319.592 81.3958 319.592 79.5625Z" fill="#F27D51"/>
<path d="M372.581 86.3333C368.482 86.3333 364.654 85.5677 361.102 84.0416C357.545 82.5156 354.42 80.4114 351.727 77.7291C349.045 75.0364 346.941 71.9114 345.415 68.3541C343.883 64.802 343.123 60.9948 343.123 56.9375C343.123 52.8958 343.8 49.0989 345.165 45.5416C346.524 41.9739 348.456 38.8489 350.956 36.1666C353.456 33.4895 356.415 31.3854 359.831 29.8541C363.248 28.3125 367.003 27.5416 371.102 27.5416C376.477 27.5416 381.024 28.3698 384.748 30.0208C388.467 31.677 391.3 33.8854 393.248 36.6458C395.206 39.3958 396.186 42.4375 396.186 45.7708C396.186 50.4375 394.274 53.9739 390.456 56.375C386.649 58.7812 380.482 59.9791 371.956 59.9791H365.581C367.8 63.4687 370.691 66.1354 374.248 67.9791C377.8 69.8125 381.816 70.7291 386.29 70.7291C387.899 70.7291 389.436 70.5781 390.894 70.2708C392.352 69.9687 393.811 69.5104 395.269 68.8958C395.269 71.3437 394.644 73.625 393.394 75.75C392.144 77.8645 390.446 79.7239 388.311 81.3333C386.17 82.9323 383.738 84.1614 381.019 85.0208C378.311 85.8958 375.498 86.3333 372.581 86.3333ZM364.811 58.6458H365.227C367.587 58.6458 369.566 58.177 371.165 57.2291C372.774 56.2864 374.071 55.0312 375.061 53.4583C376.045 51.875 376.748 50.1406 377.165 48.25C377.592 46.3645 377.811 44.5 377.811 42.6666C377.811 41.1666 377.654 39.625 377.352 38.0416C377.045 36.4583 376.561 35 375.894 33.6666C375.238 32.3229 374.404 31.2239 373.394 30.375C372.378 29.5312 371.191 29.1041 369.831 29.1041C368.232 29.1041 366.878 29.5625 365.769 30.4791C364.654 31.3958 363.769 32.5937 363.102 34.0625C362.446 35.5208 361.977 37.0416 361.686 38.625C361.404 40.1979 361.269 41.6614 361.269 43.0208C361.269 46.1354 361.571 49 362.186 51.625C362.811 54.2395 363.686 56.5781 364.811 58.6458Z" fill="#F27D51"/>
<path d="M169.547 110.727C169.547 112.185 169.047 113.404 168.047 114.373C167.047 115.347 165.51 115.831 163.443 115.831H160.047V123.206H157.755V105.54H163.443C165.443 105.54 166.953 106.029 167.984 106.998C169.026 107.956 169.547 109.201 169.547 110.727ZM163.443 113.935C164.734 113.935 165.677 113.659 166.276 113.102C166.885 112.55 167.193 111.758 167.193 110.727C167.193 108.55 165.943 107.456 163.443 107.456H160.047V113.935H163.443Z" fill="#9CAD8A"/>
<path d="M173.608 107.06C173.16 107.06 172.785 106.915 172.483 106.623C172.175 106.321 172.024 105.946 172.024 105.498C172.024 105.055 172.175 104.685 172.483 104.394C172.785 104.092 173.16 103.935 173.608 103.935C174.024 103.935 174.379 104.092 174.67 104.394C174.972 104.685 175.129 105.055 175.129 105.498C175.129 105.946 174.972 106.321 174.67 106.623C174.379 106.915 174.024 107.06 173.608 107.06ZM174.712 109.331V123.206H172.42V109.331H174.712Z" fill="#9CAD8A"/>
<path d="M180.943 104.456V123.206H178.651V104.456H180.943Z" fill="#9CAD8A"/>
<path d="M184.007 116.206C184.007 114.79 184.288 113.55 184.861 112.477C185.444 111.409 186.236 110.581 187.236 109.998C188.246 109.404 189.366 109.102 190.59 109.102C191.809 109.102 192.866 109.368 193.757 109.894C194.658 110.409 195.33 111.06 195.777 111.852V109.331H198.09V123.206H195.777V120.623C195.319 121.43 194.637 122.102 193.736 122.644C192.83 123.175 191.777 123.435 190.569 123.435C189.33 123.435 188.215 123.133 187.215 122.519C186.225 121.909 185.444 121.055 184.861 119.956C184.288 118.862 184.007 117.612 184.007 116.206ZM195.777 116.248C195.777 115.196 195.559 114.279 195.132 113.498C194.715 112.722 194.142 112.133 193.423 111.727C192.699 111.31 191.908 111.102 191.048 111.102C190.184 111.102 189.402 111.305 188.694 111.706C187.986 112.112 187.413 112.701 186.986 113.477C186.569 114.258 186.361 115.165 186.361 116.206C186.361 117.279 186.569 118.206 186.986 118.998C187.413 119.779 187.986 120.373 188.694 120.79C189.402 121.206 190.184 121.415 191.048 121.415C191.908 121.415 192.699 121.206 193.423 120.79C194.142 120.373 194.715 119.779 195.132 118.998C195.559 118.206 195.777 117.29 195.777 116.248Z" fill="#9CAD8A"/>
<path d="M204.816 111.227V119.415C204.816 120.081 204.951 120.555 205.233 120.831C205.524 121.113 206.024 121.248 206.733 121.248H208.42V123.206H206.358C205.066 123.206 204.097 122.915 203.462 122.331C202.821 121.738 202.504 120.764 202.504 119.415V111.227H200.712V109.331H202.504V105.831H204.816V109.331H208.42V111.227H204.816Z" fill="#9CAD8A"/>
<path d="M223.89 115.727C223.89 116.175 223.858 116.639 223.806 117.123H212.702C212.785 118.498 213.249 119.571 214.098 120.331C214.957 121.097 215.999 121.477 217.223 121.477C218.223 121.477 219.056 121.248 219.723 120.79C220.39 120.321 220.853 119.696 221.119 118.915H223.598C223.233 120.264 222.494 121.352 221.369 122.185C220.254 123.019 218.874 123.435 217.223 123.435C215.9 123.435 214.723 123.144 213.681 122.56C212.64 121.967 211.817 121.123 211.223 120.04C210.64 118.946 210.348 117.68 210.348 116.248C210.348 114.805 210.629 113.55 211.202 112.477C211.785 111.394 212.598 110.56 213.64 109.977C214.681 109.394 215.874 109.102 217.223 109.102C218.541 109.102 219.707 109.389 220.723 109.956C221.733 110.529 222.515 111.321 223.056 112.331C223.608 113.331 223.89 114.467 223.89 115.727ZM221.494 115.248C221.494 114.373 221.296 113.623 220.91 112.998C220.52 112.362 219.994 111.873 219.327 111.54C218.66 111.206 217.921 111.04 217.119 111.04C215.952 111.04 214.957 111.415 214.14 112.165C213.317 112.904 212.853 113.93 212.744 115.248H221.494Z" fill="#9CAD8A"/>
<path d="M231.843 123.435C230.77 123.435 229.812 123.253 228.968 122.894C228.119 122.534 227.452 122.029 226.968 121.373C226.478 120.722 226.208 119.972 226.156 119.123H228.531C228.598 119.821 228.926 120.389 229.51 120.831C230.093 121.264 230.853 121.477 231.801 121.477C232.687 121.477 233.385 121.284 233.885 120.894C234.395 120.508 234.656 120.019 234.656 119.435C234.656 118.826 234.385 118.373 233.843 118.081C233.301 117.779 232.458 117.487 231.322 117.206C230.291 116.93 229.452 116.654 228.801 116.373C228.145 116.097 227.593 115.685 227.135 115.144C226.676 114.592 226.447 113.868 226.447 112.977C226.447 112.269 226.656 111.623 227.072 111.04C227.489 110.446 228.083 109.972 228.864 109.623C229.64 109.279 230.531 109.102 231.531 109.102C233.072 109.102 234.312 109.493 235.26 110.269C236.202 111.05 236.708 112.112 236.781 113.456H234.468C234.411 112.737 234.119 112.154 233.593 111.706C233.062 111.264 232.348 111.04 231.447 111.04C230.624 111.04 229.968 111.222 229.468 111.581C228.978 111.93 228.739 112.394 228.739 112.977C228.739 113.435 228.885 113.81 229.176 114.102C229.478 114.394 229.853 114.633 230.301 114.81C230.744 114.993 231.364 115.185 232.156 115.394C233.156 115.675 233.968 115.946 234.593 116.206C235.218 116.472 235.749 116.868 236.197 117.394C236.656 117.909 236.89 118.592 236.906 119.435C236.906 120.201 236.687 120.889 236.26 121.498C235.843 122.097 235.244 122.571 234.468 122.915C233.702 123.258 232.827 123.435 231.843 123.435Z" fill="#9CAD8A"/>
<path d="M45.5519 114.373C45.5519 112.654 45.9373 111.102 46.7185 109.727C47.4946 108.342 48.5571 107.264 49.906 106.498C51.2498 105.722 52.7394 105.331 54.3644 105.331C56.2914 105.331 57.9737 105.8 59.406 106.727C60.8487 107.644 61.8956 108.956 62.5519 110.665H59.8019C59.3019 109.597 58.5935 108.779 57.6769 108.206C56.7602 107.639 55.656 107.352 54.3644 107.352C53.1404 107.352 52.0362 107.639 51.0519 108.206C50.0779 108.779 49.3071 109.592 48.7394 110.644C48.1821 111.701 47.906 112.946 47.906 114.373C47.906 115.779 48.1821 117.008 48.7394 118.06C49.3071 119.118 50.0779 119.93 51.0519 120.498C52.0362 121.071 53.1404 121.352 54.3644 121.352C55.656 121.352 56.7602 121.076 57.6769 120.519C58.5935 119.951 59.3019 119.133 59.8019 118.06H62.5519C61.8956 119.758 60.8487 121.06 59.406 121.977C57.9737 122.894 56.2914 123.352 54.3644 123.352C52.7394 123.352 51.2498 122.972 49.906 122.206C48.5571 121.446 47.4946 120.383 46.7185 119.019C45.9373 117.644 45.5519 116.097 45.5519 114.373Z" fill="#9CAD8A"/>
<path d="M65.1052 116.206C65.1052 114.79 65.3865 113.55 65.9594 112.477C66.5427 111.409 67.3344 110.581 68.3344 109.998C69.3448 109.404 70.4646 109.102 71.6885 109.102C72.9073 109.102 73.9646 109.368 74.8552 109.894C75.7562 110.409 76.4281 111.06 76.876 111.852V109.331H79.1885V123.206H76.876V120.623C76.4177 121.43 75.7354 122.102 74.8344 122.644C73.9281 123.175 72.876 123.435 71.6677 123.435C70.4281 123.435 69.3135 123.133 68.3135 122.519C67.324 121.909 66.5427 121.055 65.9594 119.956C65.3865 118.862 65.1052 117.612 65.1052 116.206ZM76.876 116.248C76.876 115.196 76.6573 114.279 76.2302 113.498C75.8135 112.722 75.2406 112.133 74.5219 111.727C73.7979 111.31 73.0062 111.102 72.1469 111.102C71.2823 111.102 70.501 111.305 69.7927 111.706C69.0844 112.112 68.5115 112.701 68.0844 113.477C67.6677 114.258 67.4594 115.165 67.4594 116.206C67.4594 117.279 67.6677 118.206 68.0844 118.998C68.5115 119.779 69.0844 120.373 69.7927 120.79C70.501 121.206 71.2823 121.415 72.1469 121.415C73.0062 121.415 73.7979 121.206 74.5219 120.79C75.2406 120.373 75.8135 119.779 76.2302 118.998C76.6573 118.206 76.876 117.29 76.876 116.248Z" fill="#9CAD8A"/>
<path d="M88.7479 111.227H85.8312V123.206H83.5187V111.227H81.727V109.331H83.5187V108.331C83.5187 106.779 83.9197 105.644 84.727 104.935C85.5291 104.217 86.8208 103.852 88.602 103.852V105.769C87.5864 105.769 86.8729 105.972 86.4562 106.373C86.0395 106.779 85.8312 107.43 85.8312 108.331V109.331H88.7479V111.227Z" fill="#9CAD8A"/>
<path d="M104.102 115.727C104.102 116.175 104.07 116.639 104.018 117.123H92.9142C92.9975 118.498 93.461 119.571 94.31 120.331C95.1694 121.097 96.211 121.477 97.435 121.477C98.435 121.477 99.2683 121.248 99.935 120.79C100.602 120.321 101.065 119.696 101.331 118.915H103.81C103.445 120.264 102.706 121.352 101.581 122.185C100.466 123.019 99.086 123.435 97.435 123.435C96.1121 123.435 94.935 123.144 93.8933 122.56C92.8517 121.967 92.0287 121.123 91.435 120.04C90.8517 118.946 90.56 117.68 90.56 116.248C90.56 114.805 90.8412 113.55 91.4142 112.477C91.9975 111.394 92.81 110.56 93.8517 109.977C94.8933 109.394 96.086 109.102 97.435 109.102C98.7527 109.102 99.9194 109.389 100.935 109.956C101.945 110.529 102.727 111.321 103.268 112.331C103.82 113.331 104.102 114.467 104.102 115.727ZM101.706 115.248C101.706 114.373 101.508 113.623 101.122 112.998C100.732 112.363 100.206 111.873 99.5392 111.54C98.8725 111.206 98.1329 111.04 97.3308 111.04C96.1642 111.04 95.1694 111.415 94.3517 112.165C93.5287 112.904 93.0652 113.93 92.9558 115.248H101.706ZM99.81 105.394L94.4142 108.29V106.56L99.81 103.394V105.394Z" fill="#9CAD8A"/>
<path d="M293.745 123.394C292.578 123.394 291.536 123.185 290.62 122.769C289.703 122.352 288.979 121.779 288.453 121.04C287.937 120.305 287.667 119.456 287.641 118.498H290.099C290.182 119.321 290.521 120.014 291.12 120.581C291.729 121.154 292.604 121.435 293.745 121.435C294.839 121.435 295.708 121.165 296.349 120.623C296.984 120.071 297.307 119.363 297.307 118.498C297.307 117.821 297.12 117.269 296.745 116.852C296.37 116.425 295.901 116.102 295.349 115.894C294.792 115.675 294.042 115.435 293.099 115.185C291.932 114.883 290.995 114.576 290.286 114.269C289.589 113.967 288.995 113.488 288.495 112.831C287.995 112.18 287.745 111.305 287.745 110.206C287.745 109.248 287.984 108.404 288.474 107.665C288.974 106.915 289.661 106.342 290.536 105.935C291.422 105.534 292.443 105.331 293.599 105.331C295.25 105.331 296.604 105.748 297.661 106.581C298.714 107.404 299.312 108.493 299.453 109.852H296.911C296.828 109.185 296.474 108.597 295.849 108.081C295.224 107.555 294.396 107.29 293.37 107.29C292.411 107.29 291.625 107.54 291.016 108.04C290.401 108.54 290.099 109.243 290.099 110.144C290.099 110.784 290.276 111.305 290.641 111.706C291.016 112.113 291.464 112.425 291.995 112.644C292.521 112.852 293.266 113.092 294.224 113.352C295.391 113.675 296.328 113.993 297.036 114.31C297.755 114.618 298.37 115.097 298.87 115.748C299.37 116.404 299.62 117.284 299.62 118.394C299.62 119.258 299.391 120.071 298.932 120.831C298.484 121.581 297.812 122.201 296.911 122.685C296.021 123.159 294.964 123.394 293.745 123.394Z" fill="#9CAD8A"/>
<path d="M309.779 109.06C311.472 109.06 312.842 109.576 313.883 110.602C314.935 111.633 315.467 113.102 315.467 115.019V123.206H313.175V115.352C313.175 113.967 312.826 112.909 312.133 112.185C311.451 111.451 310.508 111.081 309.3 111.081C308.092 111.081 307.123 111.467 306.404 112.227C305.68 112.977 305.321 114.081 305.321 115.54V123.206H303.029V109.331H305.321V111.29C305.779 110.581 306.394 110.034 307.175 109.644C307.967 109.258 308.831 109.06 309.779 109.06Z" fill="#9CAD8A"/>
<path d="M318.364 116.206C318.364 114.79 318.645 113.55 319.218 112.477C319.802 111.409 320.593 110.581 321.593 109.998C322.604 109.404 323.723 109.102 324.947 109.102C326.166 109.102 327.223 109.368 328.114 109.894C329.015 110.409 329.687 111.06 330.135 111.852V109.331H332.447V123.206H330.135V120.623C329.677 121.43 328.994 122.102 328.093 122.644C327.187 123.175 326.135 123.435 324.927 123.435C323.687 123.435 322.572 123.133 321.572 122.519C320.583 121.909 319.802 121.055 319.218 119.956C318.645 118.862 318.364 117.612 318.364 116.206ZM330.135 116.248C330.135 115.196 329.916 114.279 329.489 113.498C329.072 112.722 328.5 112.133 327.781 111.727C327.057 111.31 326.265 111.102 325.406 111.102C324.541 111.102 323.76 111.305 323.052 111.706C322.343 112.112 321.77 112.701 321.343 113.477C320.927 114.258 320.718 115.165 320.718 116.206C320.718 117.279 320.927 118.206 321.343 118.998C321.77 119.779 322.343 120.373 323.052 120.79C323.76 121.206 324.541 121.415 325.406 121.415C326.265 121.415 327.057 121.206 327.781 120.79C328.5 120.373 329.072 119.779 329.489 118.998C329.916 118.206 330.135 117.29 330.135 116.248Z" fill="#9CAD8A"/>
<path d="M335.486 116.248C335.486 114.805 335.767 113.55 336.34 112.477C336.923 111.409 337.72 110.581 338.736 109.998C339.762 109.404 340.934 109.102 342.257 109.102C343.965 109.102 345.366 109.519 346.465 110.352C347.574 111.175 348.309 112.321 348.673 113.79H346.173C345.934 112.946 345.476 112.279 344.798 111.79C344.116 111.29 343.267 111.04 342.257 111.04C340.934 111.04 339.866 111.493 339.048 112.394C338.241 113.3 337.84 114.581 337.84 116.248C337.84 117.915 338.241 119.206 339.048 120.123C339.866 121.029 340.934 121.477 342.257 121.477C343.267 121.477 344.111 121.243 344.778 120.769C345.455 120.3 345.923 119.623 346.173 118.748H348.673C348.298 120.165 347.548 121.305 346.423 122.165C345.309 123.014 343.923 123.435 342.257 123.435C340.934 123.435 339.762 123.144 338.736 122.56C337.72 121.967 336.923 121.123 336.34 120.04C335.767 118.956 335.486 117.696 335.486 116.248Z" fill="#9CAD8A"/>
<path d="M359.485 123.206L354.027 117.081V123.206H351.735V104.456H354.027V115.477L359.381 109.331H362.589L356.068 116.248L362.631 123.206H359.485Z" fill="#9CAD8A"/>
<path d="M369.696 123.435C368.623 123.435 367.665 123.253 366.821 122.894C365.972 122.534 365.305 122.029 364.821 121.373C364.331 120.722 364.06 119.972 364.008 119.123H366.383C366.451 119.821 366.779 120.389 367.362 120.831C367.946 121.264 368.706 121.477 369.654 121.477C370.54 121.477 371.237 121.284 371.737 120.894C372.248 120.508 372.508 120.019 372.508 119.435C372.508 118.826 372.237 118.373 371.696 118.081C371.154 117.779 370.31 117.487 369.175 117.206C368.144 116.93 367.305 116.654 366.654 116.373C365.998 116.097 365.446 115.685 364.987 115.144C364.529 114.592 364.3 113.868 364.3 112.977C364.3 112.269 364.508 111.623 364.925 111.04C365.342 110.446 365.935 109.972 366.717 109.623C367.493 109.279 368.383 109.102 369.383 109.102C370.925 109.102 372.165 109.493 373.112 110.269C374.055 111.05 374.56 112.112 374.633 113.456H372.321C372.264 112.737 371.972 112.154 371.446 111.706C370.915 111.264 370.201 111.04 369.3 111.04C368.477 111.04 367.821 111.222 367.321 111.581C366.831 111.93 366.592 112.394 366.592 112.977C366.592 113.435 366.737 113.81 367.029 114.102C367.331 114.394 367.706 114.633 368.154 114.81C368.597 114.993 369.217 115.185 370.008 115.394C371.008 115.675 371.821 115.946 372.446 116.206C373.071 116.472 373.602 116.868 374.05 117.394C374.508 117.909 374.743 118.592 374.758 119.435C374.758 120.201 374.54 120.889 374.112 121.498C373.696 122.097 373.097 122.571 372.321 122.915C371.555 123.258 370.68 123.435 369.696 123.435Z" fill="#9CAD8A"/>
<path d="M259.359 119.042C258.969 118.859 258.563 118.797 258.302 119.776C257.76 121.74 255.646 120.557 255.12 123.151C255.01 123.688 254.99 123.729 254.526 124.51C252.422 128.016 257.995 127.292 257.536 123.974C257.422 123.151 257.479 122.813 258.484 122.193C259.578 121.521 259.63 121.141 259.63 120.255C259.635 119.219 259.802 119.255 259.359 119.042Z" fill="#F27D51"/>
<path d="M262.849 110.417C263.406 110.562 263.469 110.516 263.479 109.583C263.505 107.682 264.297 107.953 264.625 105.516C264.625 104.01 265.203 104.208 265.203 103.516C265.203 101.26 262.687 101.797 262.307 103.552C262.062 104.615 262.99 105.818 262.76 107.333C262.708 107.703 262.307 107.714 262.062 108.484C261.979 109.255 262.187 109.37 262.38 109.828C262.63 110.406 262.484 110.318 262.849 110.417Z" fill="#F27D51"/>
<path d="M264.74 110.375C264.578 110.698 264.521 111.078 264.599 111.229C264.667 111.354 265.229 111.708 265.297 111.708C265.37 111.708 265.458 111.589 265.505 111.411C265.615 111.031 265.969 110.703 266.62 110.391C268.339 109.573 268.125 108.901 268.484 108.182C268.854 107.443 270.625 107.292 271.307 106.12C272.453 104.125 269.703 102.26 268.057 105.432C267.161 107.156 266.5 106.12 266.344 108.078C266.224 109.474 265.151 109.542 264.74 110.375Z" fill="#F27D51"/>
<path d="M264.74 110.375C264.578 110.698 264.521 111.078 264.599 111.229C264.667 111.354 265.229 111.708 265.297 111.708C265.37 111.708 265.458 111.589 265.505 111.411C265.615 111.031 265.969 110.703 266.62 110.391C268.339 109.573 268.125 108.901 268.484 108.182C268.854 107.443 270.625 107.292 271.307 106.12C272.453 104.125 269.703 102.26 268.057 105.432C267.161 107.156 266.5 106.12 266.344 108.078C266.224 109.474 265.151 109.542 264.74 110.375Z" fill="#F27D51"/>
<path d="M262.375 120.484C262.339 120.125 262.193 119.771 262.042 119.687C261.917 119.615 261.255 119.615 261.198 119.646C261.135 119.682 261.125 119.833 261.177 120.01C261.286 120.391 261.156 120.854 260.771 121.464C259.745 123.068 260.281 123.521 260.354 124.328C260.432 125.146 259.005 126.214 259.047 127.568C259.13 129.865 262.448 129.995 262.172 126.432C262.021 124.495 263.13 125.026 262.229 123.281C261.589 122.036 262.469 121.411 262.375 120.484Z" fill="#F27D51"/>
<path d="M258.953 116.604C259.297 117.135 260.042 117.833 260.979 117.932C265.443 118.411 265.938 111.922 261.339 111.943C259.365 111.943 257.573 114.469 258.953 116.604Z" fill="#F27D51"/>
<path d="M258.078 106.906C258.255 108.417 259.583 108.078 259.609 109.646C259.615 110.037 259.656 110.188 259.828 110.406C259.896 110.495 259.979 110.568 260.005 110.557C260.458 110.401 261 110.531 260.776 110.052C260.411 109.281 260.844 108.865 260.76 108.125C260.656 107.271 259.849 106.818 259.911 106.177C259.974 105.49 260.505 104.635 260.401 103.896C260.297 103.172 260.484 102.865 259.828 102.464C259.141 102.047 258.568 102.313 258.052 102.849C257.266 103.646 257.047 104.531 257.406 105.432C257.75 106.281 257.974 106.099 258.078 106.906Z" fill="#F27D51"/>
<path d="M269.12 111.745C268.036 112.177 266.906 111.135 266.13 112.422C265.792 112.995 265.87 113.031 265.958 113.448C265.974 113.573 266.12 113.927 266.193 113.932C266.354 114.016 267.25 112.953 268.177 113.51C268.875 113.932 268.917 113.813 269.281 113.771C270.417 113.245 270.339 113.182 271.047 112.422C272.01 111.375 272.437 112.354 273.479 111.448C273.88 111.094 274.318 110.703 274.401 110.219C274.401 110.219 274.505 109.776 274.453 109.526C274.219 108.401 273.635 107.974 272.604 108.526C271.797 108.958 271.635 108.688 270.818 109.177C269.49 109.969 270.089 111.365 269.12 111.745Z" fill="#F27D51"/>
<path d="M251.266 112.172C252.271 112.578 252.495 113.776 254.281 113.406C255.115 113.229 255.943 113.448 256.484 113.802C256.911 114.083 256.885 114 257.219 113.234C257.026 112.88 256.995 112.781 256.682 112.521C254.953 111.083 253.917 113.01 252.906 110.677C252.568 109.906 252.583 109.219 252.161 108.875C251.182 108.068 250.292 108.182 249.969 108.323C248.885 108.792 248.714 109.917 249.208 110.677C249.849 111.646 250.125 111.719 251.266 112.172Z" fill="#F27D51"/>
<path d="M272.536 114.849C271.693 115.052 271.385 114.891 271.047 114.755C270.224 114.427 269.531 114.422 268.854 115.057C267.969 115.88 267.734 115.255 266.844 115.271C266.182 115.292 266.125 115.469 266.062 115.844C265.932 116.635 266.214 115.891 267.474 116.687C269.203 117.781 269.708 116.698 270.578 117.088C271.057 117.307 271.167 117.771 271.969 117.922C272.693 118.057 273.51 117.146 274.161 117.088C275.271 117.088 275.583 116.062 275.214 115.271C274.891 114.573 273.333 114.661 272.536 114.849Z" fill="#F27D51"/>
<path d="M266.62 123.396C266.266 122.964 266.297 122.729 266.286 121.406C265.547 119.917 265 120.516 264.375 119.464C264.281 119.313 264.182 119.162 264.146 119.135C264.052 119.057 263.792 119.104 263.578 119.24C262.958 119.625 263.719 120.5 264.156 121.078C264.573 121.63 264.745 121.818 264.385 122.802C264.052 123.729 264.432 124.672 265.104 125.177C265.844 125.734 265.964 126.656 267.328 126.62C267.958 126.599 268.193 126.344 268.141 125.401C268.078 124.172 267.167 124.089 266.62 123.396Z" fill="#F27D51"/>
<path d="M272.411 121.214C270.818 120.464 270.255 120.979 269.906 119.906C269.016 117.078 267.615 118.583 265.87 117.688C265.703 117.599 265.62 117.578 265.568 117.599C265.469 117.656 265.135 118.135 265.135 118.224C265.135 118.37 265.349 118.714 265.552 118.896C265.802 119.125 266.25 119.333 266.854 119.5C267.682 119.734 267.87 119.958 268.01 120.948C268.385 123.464 269.156 121.927 270.052 123.286C270.896 124.568 272.052 124.641 272.755 124.234C273.557 123.771 273.677 121.807 272.411 121.214Z" fill="#F27D51"/>
<path d="M256.24 119.938C257.01 119.568 257.214 118.844 257.62 118.323C257.802 118.094 257.802 118.094 257.74 117.964C257.625 117.729 257.359 117.422 257.26 117.422C256.844 117.422 255.911 118.438 255.698 118.547C255.417 118.693 254.995 118.74 254.26 118.719C252.891 118.677 252.609 118.813 251.953 119.802C251.036 121.193 250.385 120.031 249.724 121.047C249.568 121.281 249.583 121.646 249.599 121.938C249.734 123.802 251.833 123.609 252.87 122.667C253.193 122.375 253.411 122.063 253.724 121.438C254.563 119.781 254.964 120.547 256.24 119.938Z" fill="#F27D51"/>
<path d="M250.943 117.26C251.802 117.188 252.432 116.417 253.099 116.307C253.979 116.156 254.641 116.948 255.521 116.875C255.776 116.849 256.823 116.604 256.849 115.958C256.891 114.964 256.349 115.714 255.292 115.552C254.286 115.401 254.042 114.458 252.87 114.25C252.245 114.141 251.641 114.609 251.099 114.526C250.594 114.453 250.307 113.995 249.505 113.979C248.927 113.969 248.562 114.156 248.339 114.568C248.125 114.953 248.12 115.083 248.297 115.609C248.427 116.016 248.464 116.083 248.625 116.266C248.953 116.646 250 117.344 250.943 117.26Z" fill="#F27D51"/>
<path d="M253.245 107.375C253.563 108.219 254.188 108.359 254.76 108.49C255.932 108.766 255.927 109.005 256.234 110.344C256.474 111.391 257.125 111.495 258.026 111.776C258.656 111.359 258.594 111.349 258.203 111.047C256.719 109.927 258.109 108.818 257.031 107.151C256.161 105.807 255.693 106.276 254.76 105.396C253.432 104.146 252.766 105.917 253.115 106.828L253.245 107.375Z" fill="#F27D51"/>
</g>
<defs>
<clipPath id="clip0_149_682">
<rect width="396" height="129" fill="white"/>
</clipPath>
</defs>
</svg>
