<svg xmlns="http://www.w3.org/2000/svg" width="884" height="179" viewBox="0 0 884 179" fill="none"><path d="M81.5451 158.19L10.3814 119.252C9.70607 118.882 9.46021 118.034 9.83328 117.361L36.9393 68.4375C37.3152 67.7591 37.0625 66.9043 36.3782 66.5393L30.1908 63.2394C29.0958 62.6554 29.2584 61.0379 30.4476 60.6834L98.1273 40.5096C98.8457 40.2955 99.6043 40.6902 99.8414 41.4013L121.922 107.642C122.318 108.832 121.058 109.897 119.951 109.306L113.81 106.031C113.142 105.675 112.313 105.919 111.944 106.579L83.424 157.649C83.0524 158.315 82.2138 158.556 81.5451 158.19Z" fill="#FFC700" stroke="#FFC700" stroke-width="11.1088"></path><rect x="56.8843" y="87.2779" width="13.0057" height="13.0057" rx="2.77721" transform="rotate(27.3777 56.8843 87.2779)" fill="#FFC700"></rect><rect x="71.8979" y="95.0526" width="13.0057" height="13.0057" rx="2.77721" transform="rotate(27.3777 71.8979 95.0526)" fill="#FFC700"></rect><rect x="49.1094" y="102.292" width="13.0057" height="13.0057" rx="2.77721" transform="rotate(27.3777 49.1094 102.292)" fill="#FFC700"></rect><rect x="64.125" y="110.066" width="13.0057" height="13.0057" rx="2.77721" transform="rotate(27.3777 64.125 110.066)" fill="#FFC700"></rect><path d="M9.49312 120.027L2.61165 122.042C2.35948 122.115 2.32246 122.457 2.55298 122.583L82.7169 166.436C82.9474 166.562 83.2153 166.346 83.1415 166.094L81.1266 159.212C81.0808 159.056 80.917 158.966 80.7606 159.012L73.4789 161.144C73.3226 161.19 73.1587 161.1 73.113 160.944L70.9809 153.662C70.9351 153.506 70.7712 153.416 70.6149 153.462L63.3332 155.594C63.1768 155.64 63.013 155.55 62.9672 155.394L60.8351 148.112C60.7894 147.956 60.6255 147.866 60.4692 147.912L53.1874 150.044C53.0311 150.09 52.8673 150 52.8215 149.844L50.6334 142.371C50.5876 142.215 50.4238 142.125 50.2674 142.171L42.7942 144.359C42.6379 144.405 42.4741 144.315 42.4283 144.159L40.2962 136.877C40.2505 136.721 40.0866 136.631 39.9303 136.677L32.6485 138.809C32.4922 138.855 32.3284 138.765 32.2826 138.609L30.1505 131.327C30.1047 131.171 29.9409 131.081 29.7846 131.127L22.5028 133.259C22.3465 133.305 22.1826 133.215 22.1369 133.059L20.0048 125.777C19.959 125.621 19.7952 125.531 19.6388 125.577L12.3571 127.709C12.2008 127.755 12.0369 127.665 11.9911 127.509L9.85905 120.227C9.81328 120.071 9.64945 119.981 9.49312 120.027Z" fill="white" stroke="white" stroke-width="3"></path><circle cx="94.1178" cy="51.253" r="7.81844" fill="white"></circle><rect x="63.9697" y="30.4037" width="11.1088" height="22.6432" rx="2.77721" transform="rotate(29.4379 63.9697 30.4037)" fill="#FFC700"></rect><path fill-rule="evenodd" clip-rule="evenodd" d="M52.5473 82.5789C53.6053 80.5359 56.1192 79.7373 58.1622 80.7953L87.9899 96.2418C90.033 97.2998 90.8315 99.8137 89.7735 101.857L74.0828 132.156C73.0248 134.199 70.5109 134.998 68.4679 133.94L38.6402 118.493C36.5972 117.435 35.7986 114.921 36.8566 112.878L52.5473 82.5789ZM55.6098 89.7438C56.3151 88.3818 57.991 87.8495 59.353 88.5548L65.9697 91.9813C67.3318 92.6866 67.8641 94.3625 67.1588 95.7246L63.7323 102.341C63.0269 103.703 61.351 104.236 59.989 103.53L53.3723 100.104C52.0103 99.3985 51.4779 97.7226 52.1833 96.3605L55.6098 89.7438ZM74.3659 96.3298C73.0038 95.6245 71.3279 96.1568 70.6226 97.5188L67.1961 104.136C66.4908 105.498 67.0231 107.173 68.3851 107.879L75.0018 111.305C76.3638 112.011 78.0398 111.478 78.7451 110.116L82.1716 103.5C82.8769 102.138 82.3446 100.462 80.9826 99.7563L74.3659 96.3298ZM47.8349 104.758C48.5402 103.396 50.2161 102.863 51.5782 103.569L58.1949 106.995C59.5569 107.7 60.0892 109.376 59.3839 110.738L55.9574 117.355C55.2521 118.717 53.5761 119.249 52.2141 118.544L45.5974 115.118C44.2354 114.412 43.7031 112.736 44.4084 111.374L47.8349 104.758ZM66.5929 111.344C65.2309 110.638 63.555 111.171 62.8497 112.533L59.4232 119.149C58.7178 120.511 59.2502 122.187 60.6122 122.893L67.2289 126.319C68.5909 127.024 70.2668 126.492 70.9722 125.13L74.3987 118.513C75.104 117.151 74.5716 115.475 73.2096 114.77L66.5929 111.344Z" fill="white"></path><path d="M138.75 59.3631C127.028 64.247 103.273 56.8241 93.9659 53.0108C93.0797 52.6477 92.7779 51.5438 93.3075 50.7458C118.053 13.4613 135.642 22.9019 142.07 27.0157C151.973 33.3539 154.386 52.8477 138.75 59.3631Z" stroke="#FFC700" stroke-width="3.64861"></path><path d="M194.163 48.3173H176.013V106.685H158.692V48.3173H140.66V35.3863H194.163V48.3173ZM215.418 106.685H199.284V56.147H215.418V106.685ZM199.284 42.267C199.284 37.759 202.843 34.3186 207.47 34.3186C211.859 34.3186 215.418 37.759 215.418 42.267C215.418 46.7751 211.859 50.2154 207.47 50.2154C202.962 50.2154 199.403 46.6564 199.284 42.267ZM266.275 103.007C260.462 106.566 254.887 108.345 249.548 108.345C233.533 108.345 223.093 97.7871 223.093 81.8903C223.093 66.4681 234.719 54.8421 249.548 54.8421C255.836 54.8421 261.767 56.8588 266.275 60.4178L260.462 71.8066C257.497 70.2643 254.412 69.4339 251.446 69.4339C244.566 69.4339 240.176 74.1792 240.176 81.7717C240.176 89.4828 244.447 94.2281 251.446 94.2281C254.531 94.2281 257.615 93.3977 260.462 91.6182L266.275 103.007ZM289.052 85.0934V106.685H272.918V28.2683H289.052V73.2301H289.408C291.425 73.2301 292.73 69.3153 297 64.0954C302.102 57.6893 307.084 54.6048 313.253 54.6048C314.914 54.6048 317.168 54.9607 320.134 55.6725V64.3327C312.778 64.4513 309.931 68.0103 305.779 74.7724C307.915 76.196 309.813 79.1618 310.762 82.958L313.134 92.2114C314.202 96.3635 315.151 98.0244 318.591 98.0244C319.066 98.0244 319.541 97.9057 320.134 97.9057V106.447C317.287 107.278 314.677 107.634 312.304 107.634C304.83 107.634 299.847 103.837 298.187 96.8381L296.763 91.1437C295.695 86.7543 293.916 85.0934 289.526 85.0934H289.052ZM355.305 77.3823C355.186 70.7389 352.576 67.1799 347.593 67.1799C343.204 67.1799 340.238 70.8575 339.764 77.3823H355.305ZM371.439 86.2797H339.764C341.069 92.5673 345.221 96.1263 351.746 96.1263C355.542 96.1263 358.745 94.7027 362.423 91.9741L369.778 100.753C363.965 105.854 357.084 108.345 349.373 108.345C333.239 108.345 322.681 97.7871 322.681 81.8903C322.681 66.2308 333.239 54.8421 347.949 54.8421C361.592 54.8421 371.439 64.9259 371.439 80.1108V86.2797ZM403.288 106.685C400.203 107.515 397.356 107.99 394.865 107.99C385.374 107.99 380.51 102.888 380.51 93.1604V64.9259H374.341V56.147H380.51V37.0472H396.644V56.147H403.051V64.9259H396.644V92.2114C396.644 95.889 398.661 97.9057 402.339 97.9057H403.288V106.685Z" fill="black"></path><path d="M442.997 42.2222C442.997 43.7249 442.443 45.0299 441.336 46.1372C440.229 47.1653 438.924 47.6794 437.421 47.6794C435.839 47.6794 434.494 47.1653 433.387 46.1372C432.28 45.0299 431.726 43.7249 431.726 42.2222C431.726 40.6403 432.28 39.2958 433.387 38.1885C434.494 37.0812 435.839 36.5276 437.421 36.5276C439.003 36.5276 440.308 37.0812 441.336 38.1885C442.443 39.2958 442.997 40.6403 442.997 42.2222ZM432.438 105.455V55.0349H442.404V105.455H432.438ZM515.235 105.455V78.7621C515.235 67.7685 512.151 62.2717 505.981 62.2717C502.422 62.2717 499.852 63.6162 498.27 66.3053C496.767 68.9944 496.016 73.1071 496.016 78.6435V105.455H486.407V78.8808C486.407 67.8081 483.282 62.2717 477.034 62.2717C473.475 62.2717 470.074 64.8421 466.832 69.9831V105.455H457.103V55.0349H465.645V62.7462H465.882C469.362 56.6562 473.989 53.6112 479.763 53.6112C482.768 53.6112 485.457 54.4022 487.83 55.984C490.203 57.4867 492.101 59.7408 493.525 62.7462C496.609 56.6562 501.434 53.6112 507.998 53.6112C513.218 53.6112 517.331 55.5094 520.336 59.3058C523.421 63.1021 524.963 68.4408 524.963 75.3217V105.455H515.235ZM595.671 105.455V78.7621C595.671 67.7685 592.587 62.2717 586.418 62.2717C582.859 62.2717 580.288 63.6162 578.706 66.3053C577.204 68.9944 576.452 73.1071 576.452 78.6435V105.455H566.843V78.8808C566.843 67.8081 563.719 62.2717 557.471 62.2717C553.911 62.2717 550.511 64.8421 547.268 69.9831V105.455H537.54V55.0349H546.081V62.7462H546.319C549.799 56.6562 554.426 53.6112 560.199 53.6112C563.205 53.6112 565.894 54.4022 568.266 55.984C570.639 57.4867 572.537 59.7408 573.961 62.7462C577.046 56.6562 581.87 53.6112 588.435 53.6112C593.655 53.6112 597.767 55.5094 600.773 59.3058C603.857 63.1021 605.4 68.4408 605.4 75.3217V105.455H595.671ZM662.583 80.4231C662.583 84.4567 661.99 88.1344 660.804 91.4562C659.617 94.699 657.956 97.5067 655.821 99.8794C653.686 102.173 651.115 103.953 648.11 105.218C645.183 106.484 641.901 107.116 638.263 107.116C634.704 107.116 631.421 106.484 628.416 105.218C625.49 103.953 622.959 102.173 620.823 99.8794C618.688 97.5067 617.027 94.699 615.841 91.4562C614.654 88.1344 614.061 84.4567 614.061 80.4231C614.061 76.3894 614.654 72.7512 615.841 69.5085C617.027 66.1867 618.688 63.3394 620.823 60.9667C622.959 58.594 625.49 56.7749 628.416 55.5094C631.421 54.244 634.704 53.6112 638.263 53.6112C641.822 53.6112 645.104 54.244 648.11 55.5094C651.115 56.7749 653.686 58.594 655.821 60.9667C657.956 63.3394 659.617 66.1867 660.804 69.5085C661.99 72.7512 662.583 76.3894 662.583 80.4231ZM653.092 80.4231C653.092 74.9658 651.708 70.6158 648.94 67.3731C646.172 64.0512 642.613 62.3903 638.263 62.3903C633.992 62.3903 630.472 64.0512 627.704 67.3731C624.936 70.6158 623.552 74.9658 623.552 80.4231C623.552 83.1121 623.908 85.564 624.62 87.7785C625.331 89.9931 626.32 91.8912 627.586 93.4731C628.93 94.9758 630.512 96.1621 632.331 97.0321C634.15 97.9021 636.127 98.3371 638.263 98.3371C642.613 98.3371 646.172 96.7158 648.94 93.4731C651.708 90.2303 653.092 85.8803 653.092 80.4231ZM681.499 60.8481C683.081 58.5544 685.177 56.7749 687.787 55.5094C690.476 54.244 693.442 53.6112 696.685 53.6112C699.848 53.6112 702.814 54.2835 705.582 55.6281C708.351 56.8935 710.723 58.7126 712.701 61.0853C714.757 63.4581 716.339 66.3053 717.446 69.6271C718.632 72.8699 719.226 76.429 719.226 80.3044C719.226 84.1008 718.593 87.6599 717.327 90.9817C716.141 94.2244 714.48 97.0321 712.345 99.4049C710.288 101.778 707.837 103.676 704.989 105.099C702.221 106.444 699.255 107.116 696.092 107.116C692.849 107.116 689.962 106.484 687.431 105.218C684.9 103.874 682.448 101.817 680.076 99.049V105.455H671.534V27.0367H681.262V60.8481H681.499ZM708.548 80.3044C708.548 74.7681 707.243 70.3785 704.633 67.1358C702.023 63.814 698.622 62.1531 694.431 62.1531C692.532 62.1531 690.753 62.5881 689.092 63.4581C687.431 64.3281 685.968 65.5935 684.702 67.2544C683.437 68.8362 682.448 70.7344 681.737 72.949C681.025 75.1635 680.669 77.6153 680.669 80.3044C680.669 85.8408 681.974 90.2699 684.584 93.5917C687.194 96.9135 690.476 98.5744 694.431 98.5744C698.622 98.5744 702.023 96.9531 704.633 93.7103C707.243 90.3885 708.548 85.9199 708.548 80.3044ZM740.445 42.2222C740.445 43.7249 739.891 45.0299 738.784 46.1372C737.677 47.1653 736.372 47.6794 734.869 47.6794C733.287 47.6794 731.943 47.1653 730.835 46.1372C729.728 45.0299 729.174 43.7249 729.174 42.2222C729.174 40.6403 729.728 39.2958 730.835 38.1885C731.943 37.0812 733.287 36.5276 734.869 36.5276C736.451 36.5276 737.756 37.0812 738.784 38.1885C739.891 39.2958 740.445 40.6403 740.445 42.2222ZM729.886 105.455V55.0349H739.852V105.455H729.886ZM752.946 105.455V27.0367H762.556V105.455H752.946ZM788.59 42.2222C788.59 43.7249 788.036 45.0299 786.929 46.1372C785.822 47.1653 784.517 47.6794 783.014 47.6794C781.432 47.6794 780.088 47.1653 778.98 46.1372C777.873 45.0299 777.319 43.7249 777.319 42.2222C777.319 40.6403 777.873 39.2958 778.98 38.1885C780.088 37.0812 781.432 36.5276 783.014 36.5276C784.596 36.5276 785.901 37.0812 786.929 38.1885C788.036 39.2958 788.59 40.6403 788.59 42.2222ZM778.031 105.455V55.0349H787.997V105.455H778.031ZM810.052 82.3212C810.21 87.5412 811.555 91.6144 814.086 94.5408C816.696 97.3881 820.017 98.8117 824.051 98.8117C828.796 98.8117 833.146 97.1903 837.101 93.9476L841.728 99.7608C839.276 102.292 836.547 104.15 833.542 105.337C830.536 106.523 827.136 107.116 823.339 107.116C819.859 107.116 816.656 106.484 813.73 105.218C810.882 103.953 808.431 102.173 806.374 99.8794C804.318 97.5858 802.696 94.8176 801.51 91.5749C800.324 88.2531 799.731 84.6149 799.731 80.6603C799.731 76.5476 800.284 72.8303 801.391 69.5085C802.578 66.1867 804.16 63.3394 806.137 60.9667C808.193 58.594 810.645 56.7749 813.492 55.5094C816.34 54.244 819.464 53.6112 822.865 53.6112C825.949 53.6112 828.796 54.2044 831.406 55.3908C834.016 56.4981 836.271 58.159 838.169 60.3735C840.067 62.509 841.53 65.119 842.558 68.2035C843.586 71.2881 844.101 74.7285 844.101 78.5249V82.3212H810.052ZM834.491 75.4403C834.175 71.0903 832.988 67.7685 830.932 65.4749C828.876 63.1022 826.147 61.9158 822.746 61.9158C819.266 61.9158 816.419 63.1022 814.204 65.4749C811.99 67.8476 810.685 71.1694 810.289 75.4403H834.491ZM878.749 65.0003C877.167 63.9722 875.585 63.4581 874.003 63.4581C870.049 63.4581 866.569 66.3449 863.563 72.1185V105.455H853.835V55.0349H862.258V64.8817H862.496C864.473 61.0853 866.411 58.2776 868.309 56.4585C870.207 54.5603 872.263 53.6112 874.478 53.6112C877.009 53.6112 879.421 54.679 881.715 56.8144L878.749 65.0003Z" fill="black"></path><path d="M358.74 160.771C357.313 161.017 356.01 160.943 354.83 160.55C353.649 160.107 352.69 159.394 351.952 158.41C351.264 157.377 350.919 156.074 350.919 154.5C350.772 153.025 350.944 151.328 351.436 149.41C351.928 147.442 352.641 145.475 353.575 143.507C354.559 141.54 355.616 139.843 356.748 138.417C357.731 137.236 358.715 136.154 359.699 135.171C360.682 134.187 361.568 133.523 362.355 133.179C363.043 132.884 363.683 132.711 364.273 132.662C364.912 132.564 365.429 132.515 365.822 132.515C366.609 132.711 367.445 133.08 368.331 133.621C369.265 134.113 369.732 134.654 369.732 135.244C369.732 135.244 369.782 135.318 369.88 135.466C370.028 135.564 370.101 135.613 370.101 135.613C370.396 135.613 370.642 135.933 370.839 136.572C371.085 137.212 371.233 137.95 371.282 138.786C371.331 139.573 371.208 140.237 370.913 140.778C370.716 141.712 370.372 142.524 369.88 143.212C369.388 143.901 368.946 144.245 368.552 144.245C368.355 144.245 368.159 144.27 367.962 144.319C367.814 144.319 367.74 144.442 367.74 144.688C367.74 144.934 367.593 145.032 367.298 144.983C367.052 144.934 366.781 144.786 366.486 144.54C366.191 144.245 365.97 143.901 365.822 143.507C365.822 143.261 365.921 142.843 366.117 142.253C366.314 141.663 366.511 140.901 366.708 139.966C367.003 138.589 366.978 137.704 366.634 137.31C366.29 136.867 365.626 136.843 364.642 137.236C363.412 137.925 362.232 138.884 361.101 140.114C360.019 141.343 359.01 142.942 358.076 144.909C357.141 146.827 356.305 149.237 355.567 152.139C355.272 153.271 355.149 154.254 355.198 155.09C355.297 155.927 355.42 156.369 355.567 156.418C356.256 156.615 357.19 156.664 358.371 156.566C359.551 156.418 360.412 156.197 360.953 155.902C361.74 155.508 362.625 154.992 363.609 154.353C364.593 153.664 365.453 153.049 366.191 152.508C366.437 152.361 366.732 152.115 367.077 151.77C367.421 151.426 367.79 151.156 368.183 150.959C368.577 150.369 368.921 150.024 369.216 149.926C369.511 149.828 369.954 149.778 370.544 149.778C370.937 149.877 371.306 150.024 371.651 150.221C371.995 150.418 372.216 150.615 372.315 150.811C372.462 151.008 372.388 151.18 372.093 151.328C371.897 151.328 371.774 151.402 371.724 151.549C371.724 151.647 371.724 151.697 371.724 151.697C371.823 151.893 371.601 152.311 371.06 152.951C370.569 153.541 369.929 154.205 369.142 154.943C368.355 155.681 367.593 156.32 366.855 156.861C366.167 157.353 365.675 157.599 365.38 157.599C364.888 157.599 364.642 157.746 364.642 158.041C364.642 158.14 364.273 158.386 363.535 158.779C362.847 159.173 362.035 159.566 361.101 159.96C360.215 160.353 359.428 160.624 358.74 160.771ZM357.559 174.715C356.821 174.863 355.936 174.863 354.903 174.715C353.87 174.617 352.911 174.445 352.026 174.199C351.141 174.002 350.55 173.854 350.255 173.756C349.665 173.559 349.272 173.264 349.075 172.871C348.927 172.477 348.927 172.059 349.075 171.616C349.222 171.223 349.493 170.903 349.886 170.657C350.28 170.461 350.723 170.436 351.214 170.584C352.001 170.829 352.862 171.1 353.797 171.395C354.78 171.69 355.666 171.838 356.453 171.838C357.24 171.838 357.805 171.493 358.149 170.805C358.494 170.264 358.543 169.723 358.297 169.182C358.1 168.69 357.731 168.149 357.19 167.559C356.846 167.116 356.428 166.575 355.936 165.936C355.444 165.345 354.928 164.804 354.387 164.313C353.993 163.722 353.723 163.132 353.575 162.542C353.477 162.001 353.821 161.361 354.608 160.624C355.395 159.837 356.969 158.853 359.33 157.673L361.765 159.369C360.535 159.96 359.527 160.525 358.74 161.066C358.002 161.607 357.633 162.198 357.633 162.837C358.322 163.821 359.084 164.755 359.92 165.64C360.756 166.575 361.297 167.534 361.543 168.518C361.838 169.698 361.838 170.707 361.543 171.543C361.297 172.428 360.805 173.117 360.068 173.608C359.379 174.149 358.543 174.518 357.559 174.715ZM375.227 158.927C375.03 158.533 374.784 158.238 374.489 158.041C374.194 157.796 374.046 157.574 374.046 157.377C374.046 157.181 374.022 156.984 373.972 156.787C373.972 156.541 373.874 156.32 373.677 156.123C373.431 155.828 373.456 155.164 373.751 154.131C374.046 153.049 374.538 151.746 375.227 150.221C375.915 148.647 376.727 147 377.661 145.278C378.055 144.885 378.448 144.368 378.842 143.729C379.235 143.089 379.53 142.671 379.727 142.475C379.727 142.278 379.801 142.106 379.948 141.958C380.096 141.761 380.268 141.663 380.465 141.663V141.22C380.465 140.974 380.686 140.556 381.129 139.966C381.621 139.376 382.211 138.736 382.899 138.048C383.588 137.31 384.301 136.622 385.039 135.982C385.777 135.294 386.391 134.802 386.883 134.507C387.916 133.818 388.974 133.4 390.056 133.252C391.187 133.105 392.146 133.351 392.933 133.99C393.081 134.138 393.327 134.384 393.671 134.728C394.015 135.072 394.409 135.466 394.851 135.908C395.343 136.302 395.835 136.72 396.327 137.163L399.057 139.597L397.729 143.286C397.089 145.253 396.917 146.975 397.212 148.45C397.556 149.926 398.048 151.205 398.688 152.287C398.934 152.828 399.425 153.344 400.163 153.836C400.95 154.328 401.688 154.623 402.376 154.722C402.77 154.771 403.139 154.918 403.483 155.164C403.827 155.41 404 155.804 404 156.345C404 156.836 403.901 157.23 403.704 157.525C403.508 157.82 403.163 158.017 402.672 158.115C401.048 158.312 399.524 157.919 398.097 156.935C396.72 155.951 395.441 154.328 394.261 152.066C394.064 151.77 393.794 151.229 393.449 150.442C393.154 149.606 392.982 149.065 392.933 148.819C392.736 149.065 392.367 149.533 391.826 150.221C391.285 150.861 390.867 151.328 390.572 151.623C387.08 155.164 384.055 157.55 381.498 158.779C378.989 159.96 376.899 160.009 375.227 158.927ZM377.883 154.795C377.883 155.14 378.399 155.14 379.432 154.795C380.514 154.402 381.67 153.713 382.899 152.73C384.572 151.303 386.244 149.729 387.916 148.008C389.638 146.286 391.015 144.688 392.048 143.212L393.671 140.556C393.179 139.425 392.638 138.663 392.048 138.269C391.507 137.827 391.039 137.605 390.646 137.605C390.007 137.605 389.047 138.195 387.769 139.376C386.539 140.556 385.211 142.13 383.785 144.098C382.358 146.065 381.006 148.229 379.727 150.59C379.235 151.574 378.792 152.533 378.399 153.467C378.055 154.353 377.883 154.795 377.883 154.795ZM426.48 157.082C426.136 156.787 425.693 155.902 425.152 154.426C424.66 152.951 424.169 151.229 423.677 149.262C423.234 147.245 422.865 145.401 422.57 143.729C422.373 142.745 422.152 141.909 421.906 141.22C421.709 140.532 421.537 139.966 421.39 139.523C421.144 138.638 421.07 137.9 421.168 137.31C421.267 136.72 421.611 136.253 422.201 135.908C422.447 135.761 422.742 135.662 423.086 135.613C423.48 135.515 423.775 135.49 423.972 135.539C424.562 135.736 425.103 136.646 425.595 138.269C426.087 139.843 426.529 141.933 426.923 144.54C427.12 146.065 427.366 147.368 427.661 148.45C427.956 149.533 428.103 150.172 428.103 150.369C428.3 150.762 428.521 151.156 428.767 151.549C429.062 151.893 429.407 151.869 429.8 151.475C429.997 151.279 430.39 150.836 430.981 150.147C431.62 149.459 432.235 148.721 432.825 147.934C433.858 146.557 434.669 145.426 435.26 144.54C435.899 143.655 436.612 142.72 437.399 141.737C437.744 141.245 438.137 140.704 438.58 140.114C439.022 139.523 439.465 138.982 439.908 138.491C440.399 137.95 440.842 137.63 441.236 137.531C442.416 137.335 443.055 137.581 443.154 138.269C443.252 138.958 442.81 139.991 441.826 141.368C441.432 141.958 441.113 142.524 440.867 143.065C440.67 143.557 440.473 143.901 440.277 144.098C439.883 144.885 439.268 145.893 438.432 147.122C437.596 148.303 436.784 149.41 435.997 150.442C435.21 151.426 434.669 152.066 434.374 152.361C434.178 152.557 433.735 152.926 433.046 153.467C432.407 154.008 431.792 154.697 431.202 155.533C430.022 156.664 429.087 157.353 428.398 157.599C427.71 157.845 427.07 157.673 426.48 157.082ZM450.314 158.779C449.281 158.976 448.617 159.05 448.322 159.001C448.076 158.902 447.683 158.607 447.142 158.115C446.355 157.722 445.691 157.23 445.15 156.64C444.658 156.049 444.289 155.435 444.043 154.795C443.846 154.107 443.773 153.541 443.822 153.098C443.969 151.377 444.387 149.533 445.076 147.565C445.765 145.598 446.601 143.704 447.584 141.884C448.568 140.064 449.626 138.515 450.757 137.236C451.937 135.908 453.069 135.048 454.151 134.654C455.134 134.261 456.069 134.113 456.954 134.212C457.839 134.31 458.479 134.777 458.872 135.613C459.61 137.04 459.438 137.95 458.356 138.343C458.208 138.343 458.036 138.417 457.839 138.564C457.643 138.663 457.544 138.81 457.544 139.007C457.741 139.105 458.282 139.13 459.167 139.081C460.053 138.982 460.938 138.835 461.823 138.638C462.758 138.392 463.373 138.146 463.668 137.9C463.963 137.753 464.184 137.679 464.332 137.679C464.479 137.679 464.848 137.728 465.439 137.827C466.275 138.072 466.693 138.368 466.693 138.712C466.693 138.909 466.766 139.105 466.914 139.302C467.062 139.45 467.234 139.523 467.43 139.523C467.775 139.573 467.726 139.794 467.283 140.187C466.889 140.581 466.201 141.122 465.217 141.811C464.283 142.401 463.692 142.794 463.447 142.991C463.25 143.139 463.225 143.483 463.373 144.024C463.766 144.958 463.791 146.04 463.447 147.27C463.102 148.5 462.487 149.754 461.602 151.033C460.717 152.311 459.635 153.516 458.356 154.648C457.126 155.73 455.798 156.664 454.372 157.451C452.995 158.189 451.642 158.632 450.314 158.779ZM449.06 155.533C449.257 155.533 449.601 155.435 450.093 155.238C450.585 154.992 450.978 154.795 451.273 154.648C451.47 154.451 451.716 154.23 452.011 153.984C452.355 153.689 452.626 153.516 452.823 153.467C453.019 153.467 453.265 153.394 453.56 153.246C453.856 153.049 454.274 152.68 454.815 152.139C455.356 151.549 456.069 150.688 456.954 149.557C457.938 148.475 458.7 147.491 459.241 146.606C459.782 145.672 459.93 144.811 459.684 144.024C459.635 143.827 459.487 143.704 459.241 143.655C459.044 143.606 458.774 143.483 458.43 143.286C457.938 143.286 457.471 143.163 457.028 142.917C456.634 142.622 456.167 142.253 455.626 141.811L454.446 140.335L453.192 141.589C452.405 142.376 451.568 143.557 450.683 145.13C449.847 146.655 449.134 148.229 448.544 149.852C447.953 151.426 447.609 152.68 447.511 153.615C447.462 154.353 447.584 154.844 447.88 155.09C448.175 155.336 448.568 155.484 449.06 155.533ZM471.528 157.82C470.593 156.984 469.88 156.123 469.388 155.238C468.946 154.353 468.602 152.951 468.356 151.033C468.257 150.147 468.356 148.991 468.651 147.565C468.946 146.09 469.364 144.54 469.905 142.917C470.446 141.294 471.061 139.819 471.749 138.491C472.438 137.113 473.126 136.081 473.815 135.392C474.405 134.654 474.873 134.261 475.217 134.212C475.61 134.113 476.299 134.285 477.283 134.728C477.824 135.367 478.094 136.056 478.094 136.794C478.094 137.531 477.799 138.368 477.209 139.302C476.225 140.63 475.364 142.302 474.627 144.319C473.938 146.286 473.471 148.057 473.225 149.631C472.733 151.303 472.512 152.434 472.561 153.025C472.61 153.615 473.053 154.008 473.889 154.205C474.823 154.402 475.93 154.058 477.209 153.172C478.488 152.238 479.742 150.959 480.971 149.336C482.201 147.664 483.185 145.844 483.923 143.876C484.218 143.188 484.439 142.376 484.587 141.442C484.783 140.507 484.98 139.819 485.177 139.376C485.423 138.392 485.767 137.679 486.21 137.236C486.652 136.745 487.12 136.474 487.611 136.425C488.103 136.326 488.521 136.425 488.866 136.72C489.308 136.917 489.579 137.163 489.677 137.458C489.775 137.704 489.775 138.392 489.677 139.523C489.677 141.343 489.284 142.893 488.497 144.171C487.71 145.45 487.046 146.803 486.505 148.229C486.062 149.262 485.398 150.418 484.513 151.697C483.677 152.975 482.742 154.131 481.709 155.164C480.726 156.197 479.766 156.91 478.832 157.304C477.455 158.189 476.225 158.632 475.143 158.632C474.11 158.582 472.905 158.312 471.528 157.82ZM498.465 160.919C497.236 161.017 496.055 160.943 494.924 160.697C493.842 160.452 492.907 160.033 492.12 159.443C491.383 158.804 490.866 158.041 490.571 157.156C490.227 156.468 490.055 156 490.055 155.754C490.055 155.459 490.227 155.213 490.571 155.017C490.965 155.017 491.309 155.14 491.604 155.385C491.948 155.582 492.391 155.804 492.932 156.049C493.67 156.689 494.555 157.033 495.588 157.082C496.67 157.132 497.654 156.959 498.539 156.566C499.424 156.172 499.916 155.681 500.015 155.09C500.015 154.894 499.941 154.549 499.793 154.058C499.646 153.566 499.474 153.049 499.277 152.508C497.949 150.639 496.965 148.795 496.326 146.975C495.735 145.106 495.44 143.581 495.44 142.401C495.44 141.515 495.711 140.581 496.252 139.597C496.793 138.564 497.531 137.704 498.465 137.015C499.351 136.081 500.334 135.244 501.416 134.507C502.498 133.769 503.58 133.129 504.662 132.588C505.794 132.047 506.802 131.654 507.687 131.408C508.228 131.408 508.942 131.482 509.827 131.629C510.712 131.777 511.327 131.949 511.671 132.146C512.212 132.342 512.729 132.884 513.221 133.769C513.712 134.605 513.958 135.441 513.958 136.277C513.958 136.622 513.86 137.064 513.663 137.605C513.467 138.146 513.147 138.786 512.704 139.523C512.507 140.064 512.286 140.581 512.04 141.073C511.794 141.515 511.671 141.835 511.671 142.032C511.425 142.573 511.081 142.843 510.638 142.843C510.245 142.794 509.827 142.573 509.384 142.179C508.991 141.737 508.671 141.22 508.425 140.63C508.228 139.892 508.155 139.302 508.204 138.859C508.253 138.368 508.45 137.851 508.794 137.31C509.335 136.769 509.606 136.4 509.606 136.203C509.606 136.007 509.335 135.908 508.794 135.908C508.45 135.908 507.81 136.13 506.876 136.572C505.99 136.966 505.031 137.507 503.999 138.195C503.015 138.835 502.154 139.523 501.416 140.261C500.482 141.147 499.916 141.786 499.719 142.179C499.572 142.573 499.498 143.188 499.498 144.024C499.498 144.712 499.646 145.573 499.941 146.606C500.285 147.639 500.629 148.327 500.974 148.672C500.974 148.672 501.146 149.016 501.49 149.705C501.834 150.344 502.252 151.033 502.744 151.77C504.171 154.918 504.54 157.181 503.851 158.558C503.162 159.935 501.367 160.722 498.465 160.919ZM526.796 178.035C526.452 177.887 526.083 177.642 525.69 177.297C525.296 176.953 524.976 176.559 524.73 176.117C524.484 175.723 524.362 175.379 524.362 175.084C524.362 174.789 524.484 174.002 524.73 172.723C524.976 171.493 525.296 169.969 525.69 168.149C526.132 166.378 526.599 164.558 527.091 162.689C527.632 160.87 528.173 159.246 528.714 157.82C528.813 157.574 529.132 156.763 529.673 155.385C530.264 153.959 530.829 152.238 531.37 150.221C531.764 148.942 532.28 147.491 532.92 145.868C533.559 144.245 534.223 142.622 534.912 140.999C535.6 139.327 536.166 137.851 536.609 136.572C537.051 135.294 537.42 134.261 537.715 133.474C538.059 132.638 538.256 132.121 538.305 131.924C538.404 131.629 538.551 131.383 538.748 131.187C538.994 130.941 539.24 130.744 539.486 130.596C539.732 130.4 539.928 130.277 540.076 130.228C540.961 129.982 541.724 130.351 542.363 131.334C542.609 131.777 542.658 132.293 542.511 132.884C542.363 133.474 542.093 134.212 541.699 135.097L541.183 136.572L543.839 135.982C544.281 135.982 544.822 136.007 545.462 136.056C546.15 136.056 546.814 136.056 547.454 136.056C548.093 136.056 548.56 136.105 548.855 136.203C550.036 136.253 550.847 136.474 551.29 136.867C551.782 137.261 552.2 137.777 552.544 138.417C552.79 138.663 553.085 139.007 553.43 139.45C553.774 139.843 553.971 140.237 554.02 140.63C554.217 141.466 554.217 142.376 554.02 143.36C553.872 144.294 553.577 145.229 553.135 146.163C552.741 147.098 552.2 147.959 551.511 148.746C550.872 149.483 550.183 150.098 549.446 150.59C548.954 150.787 548.511 151.008 548.118 151.254C547.724 151.451 547.527 151.549 547.527 151.549C547.478 151.795 546.937 152.188 545.904 152.73C544.872 153.221 543.691 153.689 542.363 154.131C541.035 154.574 539.879 154.869 538.896 155.017C538.551 155.066 538.059 155.115 537.42 155.164C536.781 155.213 536.289 155.14 535.945 154.943C535.403 154.844 535.035 154.795 534.838 154.795C534.641 154.795 534.543 154.894 534.543 155.09C534.494 155.189 534.149 156.222 533.51 158.189C532.87 160.156 532.206 162.443 531.518 165.05C530.583 167.903 529.821 170.165 529.231 171.838C528.641 173.559 528.173 174.838 527.829 175.674C527.534 176.51 527.313 177.076 527.165 177.371C527.017 177.715 526.895 177.937 526.796 178.035ZM536.018 150.811C536.166 151.106 536.633 151.205 537.42 151.106C538.256 150.959 539.24 150.664 540.371 150.221C541.552 149.729 542.707 149.188 543.839 148.598C544.97 147.959 545.904 147.319 546.642 146.68C547.724 145.45 548.61 144.319 549.298 143.286C549.987 142.204 550.085 141.491 549.593 141.147C549.052 140.36 548.044 139.991 546.568 140.04C545.093 140.089 543.273 140.704 541.109 141.884C540.273 142.179 539.633 142.573 539.191 143.065C538.797 143.507 538.453 144.073 538.158 144.762C537.863 145.45 537.494 146.286 537.051 147.27C536.609 148.352 536.313 149.164 536.166 149.705C536.018 150.246 535.969 150.615 536.018 150.811ZM557.925 161.583C556.99 161.829 556.228 161.632 555.638 160.993C555.097 160.353 554.777 159.369 554.679 158.041C554.58 156.713 554.728 155.14 555.121 153.32C555.367 152.73 555.564 152.164 555.712 151.623C555.859 151.033 555.933 150.565 555.933 150.221C556.031 149.729 556.228 149.016 556.523 148.082C556.818 147.098 557.138 146.09 557.482 145.057C557.826 144.024 558.146 143.114 558.441 142.327C558.786 141.491 559.007 140.974 559.105 140.778C559.302 140.778 559.474 140.606 559.622 140.261C559.769 139.917 559.843 139.573 559.843 139.228C559.843 138.835 559.917 138.392 560.064 137.9C560.261 137.409 560.458 137.064 560.655 136.867C560.655 136.622 560.704 136.351 560.802 136.056C560.95 135.712 561.023 135.441 561.023 135.244C561.023 135.048 561.073 134.851 561.171 134.654C561.319 134.457 561.392 134.261 561.392 134.064C561.737 133.425 562.179 132.416 562.72 131.039C563.311 129.613 563.925 128.039 564.565 126.317C565.253 124.596 565.893 122.899 566.483 121.227C567.073 119.554 567.54 118.153 567.885 117.021C568.278 115.841 568.475 115.128 568.475 114.882C568.475 114.488 568.573 114.193 568.77 113.997C568.967 113.8 569.262 113.702 569.655 113.702C569.803 113.554 569.975 113.456 570.172 113.406C570.418 113.357 570.639 113.333 570.836 113.333C570.836 113.333 570.934 113.431 571.131 113.628C571.328 113.824 571.623 114.12 572.016 114.513C572.41 114.857 572.631 115.251 572.68 115.693C572.779 116.136 572.828 116.653 572.828 117.243C572.828 117.882 572.754 118.448 572.606 118.94C572.459 119.432 572.164 120.145 571.721 121.079C571.278 122.014 570.59 123.465 569.655 125.432C569.262 126.416 568.844 127.35 568.401 128.236C567.959 129.072 567.737 129.588 567.737 129.785C567.737 129.982 567.639 130.277 567.442 130.67C567.295 131.064 567.122 131.556 566.926 132.146C566.729 132.539 566.458 133.129 566.114 133.916C565.77 134.654 565.401 135.466 565.007 136.351C564.663 137.187 564.368 137.925 564.122 138.564C563.876 139.155 563.753 139.499 563.753 139.597C563.753 139.794 563.729 139.991 563.679 140.187C563.679 140.384 563.581 140.581 563.384 140.778C563.188 140.778 563.065 140.925 563.015 141.22C563.015 141.466 563.015 141.589 563.015 141.589C563.015 142.081 562.622 143.384 561.835 145.499C561.048 148.205 560.31 150.688 559.622 152.951C558.982 155.213 558.663 157.033 558.663 158.41C558.663 159.591 558.638 160.378 558.589 160.771C558.54 161.116 558.318 161.386 557.925 161.583ZM566.479 158.927C566.282 158.533 566.036 158.238 565.741 158.041C565.446 157.796 565.299 157.574 565.299 157.377C565.299 157.181 565.274 156.984 565.225 156.787C565.225 156.541 565.126 156.32 564.93 156.123C564.684 155.828 564.708 155.164 565.003 154.131C565.299 153.049 565.79 151.746 566.479 150.221C567.168 148.647 567.979 147 568.914 145.278C569.307 144.885 569.701 144.368 570.094 143.729C570.488 143.089 570.783 142.671 570.979 142.475C570.979 142.278 571.053 142.106 571.201 141.958C571.348 141.761 571.52 141.663 571.717 141.663V141.22C571.717 140.974 571.938 140.556 572.381 139.966C572.873 139.376 573.463 138.736 574.152 138.048C574.84 137.31 575.554 136.622 576.291 135.982C577.029 135.294 577.644 134.802 578.136 134.507C579.169 133.818 580.226 133.4 581.308 133.252C582.439 133.105 583.398 133.351 584.185 133.99C584.333 134.138 584.579 134.384 584.923 134.728C585.267 135.072 585.661 135.466 586.104 135.908C586.595 136.302 587.087 136.72 587.579 137.163L590.309 139.597L588.981 143.286C588.342 145.253 588.169 146.975 588.465 148.45C588.809 149.926 589.301 151.205 589.94 152.287C590.186 152.828 590.678 153.344 591.416 153.836C592.203 154.328 592.94 154.623 593.629 154.722C594.022 154.771 594.391 154.918 594.736 155.164C595.08 155.41 595.252 155.804 595.252 156.345C595.252 156.836 595.154 157.23 594.957 157.525C594.76 157.82 594.416 158.017 593.924 158.115C592.301 158.312 590.776 157.919 589.35 156.935C587.973 155.951 586.694 154.328 585.513 152.066C585.317 151.77 585.046 151.229 584.702 150.442C584.407 149.606 584.235 149.065 584.185 148.819C583.989 149.065 583.62 149.533 583.079 150.221C582.538 150.861 582.12 151.328 581.825 151.623C578.332 155.164 575.308 157.55 572.75 158.779C570.242 159.96 568.151 160.009 566.479 158.927ZM569.135 154.795C569.135 155.14 569.651 155.14 570.684 154.795C571.766 154.402 572.922 153.713 574.152 152.73C575.824 151.303 577.496 149.729 579.169 148.008C580.89 146.286 582.267 144.688 583.3 143.212L584.923 140.556C584.431 139.425 583.89 138.663 583.3 138.269C582.759 137.827 582.292 137.605 581.898 137.605C581.259 137.605 580.3 138.195 579.021 139.376C577.791 140.556 576.463 142.13 575.037 144.098C573.611 146.065 572.258 148.229 570.979 150.59C570.488 151.574 570.045 152.533 569.651 153.467C569.307 154.353 569.135 154.795 569.135 154.795ZM599.643 159.296C598.906 159.197 598.266 158.681 597.725 157.746C597.233 156.763 596.938 155.877 596.84 155.09C596.889 154.697 596.938 154.131 596.987 153.394C597.086 152.656 597.184 151.893 597.283 151.106C597.479 150.172 597.75 149.041 598.094 147.713C598.438 146.336 598.783 144.958 599.127 143.581C599.52 142.204 599.865 141.024 600.16 140.04C600.455 139.056 600.652 138.466 600.75 138.269C600.996 137.876 601.389 137.777 601.931 137.974C602.472 138.171 602.914 138.466 603.259 138.859C603.554 139.253 603.726 139.72 603.775 140.261C603.873 140.802 603.8 141.589 603.554 142.622C603.357 143.655 602.963 145.18 602.373 147.196C601.832 149.164 601.414 150.762 601.119 151.992C600.873 153.172 600.775 154.426 600.824 155.754C600.627 157.427 600.48 158.46 600.381 158.853C600.283 159.197 600.037 159.345 599.643 159.296ZM608.128 129.859C607.931 130.006 607.734 130.08 607.538 130.08C607.39 130.031 607.12 129.883 606.726 129.637C606.382 129.588 605.939 129.367 605.398 128.973C604.906 128.531 604.464 128.088 604.07 127.645C603.726 127.154 603.554 126.858 603.554 126.76C603.504 126.268 603.529 125.653 603.627 124.916C603.775 124.129 604.045 123.44 604.439 122.85C604.832 122.21 605.398 121.866 606.136 121.817C606.333 121.817 606.505 121.842 606.652 121.891C606.8 121.94 607.242 122.112 607.98 122.407C608.374 123.145 608.767 123.981 609.161 124.916C609.554 125.801 609.726 126.686 609.677 127.572C609.628 128.408 609.111 129.17 608.128 129.859ZM612.003 159.296C611.855 159.345 611.609 159.32 611.265 159.222C610.921 159.124 610.576 159.001 610.232 158.853C609.888 158.705 609.667 158.582 609.568 158.484C609.371 158.287 609.175 157.992 608.978 157.599C608.83 157.205 608.83 156.64 608.978 155.902C609.126 155.115 609.617 154.107 610.454 152.877C610.699 152.385 610.995 151.647 611.339 150.664C611.683 149.68 612.027 148.647 612.372 147.565C612.765 146.434 613.109 145.426 613.405 144.54C613.749 143.655 613.995 143.04 614.142 142.696C614.241 141.86 614.192 141.27 613.995 140.925C613.847 140.532 613.429 140.31 612.741 140.261C612.249 140.261 611.855 140.212 611.56 140.114C611.314 140.015 611.191 139.523 611.191 138.638C611.29 137.95 611.462 137.482 611.708 137.236C612.003 136.941 612.396 136.622 612.888 136.277C613.38 136.031 613.872 135.859 614.364 135.761C614.905 135.662 615.421 135.638 615.913 135.687C616.405 135.736 616.798 135.908 617.093 136.203C617.438 136.4 617.659 136.843 617.757 137.531C617.856 138.171 617.905 138.835 617.905 139.523C617.954 140.212 618.003 140.728 618.053 141.073C618.544 140.679 619.208 140.138 620.045 139.45C620.93 138.712 621.692 138.023 622.332 137.384C623.119 136.843 624.053 136.302 625.135 135.761C626.217 135.171 627.004 134.875 627.496 134.875C628.037 134.875 628.578 135.023 629.119 135.318C629.66 135.564 630.029 135.884 630.226 136.277C630.718 137.113 630.939 137.851 630.89 138.491C630.89 139.13 630.619 139.794 630.078 140.483C629.586 141.122 628.972 141.565 628.234 141.811C627.545 142.056 627.103 142.179 626.906 142.179C626.611 142.179 626.242 141.958 625.799 141.515C625.356 141.073 625.111 140.704 625.061 140.409C625.061 140.261 624.742 140.409 624.102 140.851C623.512 141.245 622.848 141.761 622.11 142.401C621.372 142.991 620.758 143.532 620.266 144.024C619.43 145.057 618.544 146.458 617.61 148.229C616.675 150 615.569 152.139 614.29 154.648C613.7 155.877 613.282 156.935 613.036 157.82C612.79 158.656 612.445 159.148 612.003 159.296ZM636.449 159.148C635.859 159.246 635.219 159.148 634.531 158.853C633.842 158.558 633.227 158.14 632.686 157.599C632.194 157.058 631.875 156.492 631.727 155.902C631.53 154.869 631.653 153.59 632.096 152.066C632.588 150.492 633.277 148.844 634.162 147.122C635.096 145.352 636.129 143.655 637.26 142.032C638.441 140.409 639.646 139.007 640.876 137.827C642.154 136.597 643.335 135.761 644.417 135.318C644.958 134.974 645.376 134.753 645.671 134.654C646.015 134.507 646.36 134.482 646.704 134.58C647.097 134.679 647.663 134.925 648.401 135.318C649.089 135.515 649.606 135.736 649.95 135.982C650.294 136.228 650.737 136.72 651.278 137.458C651.672 138.195 651.967 138.933 652.163 139.671C652.36 140.409 652.532 141.245 652.68 142.179C653.073 143.409 653.221 144.221 653.123 144.614C653.024 144.958 652.877 145.229 652.68 145.426C652.286 145.917 652.188 146.163 652.385 146.163C652.385 146.163 652.36 146.262 652.311 146.458C652.311 146.606 652.213 146.852 652.016 147.196C651.672 148.278 651.401 149.41 651.204 150.59C651.057 151.721 651.081 152.656 651.278 153.394C651.672 154.476 652.385 155.115 653.418 155.312C654.451 155.508 655.508 155.066 656.59 153.984C657.131 153.59 657.648 153.246 658.139 152.951C658.631 152.607 658.877 152.631 658.877 153.025C658.877 153.025 658.951 153.098 659.098 153.246C659.246 153.344 659.418 153.394 659.615 153.394C659.861 153.394 660.008 153.492 660.058 153.689C660.156 153.885 660.156 154.156 660.058 154.5C660.008 154.795 659.861 155.14 659.615 155.533C658.877 156.271 658.508 156.763 658.508 157.009C658.508 157.009 658.41 157.107 658.213 157.304C658.066 157.451 657.795 157.697 657.402 158.041C656.516 158.582 655.385 158.853 654.008 158.853C652.68 158.853 651.647 158.582 650.909 158.041C650.171 157.5 649.483 156.763 648.843 155.828C648.253 154.894 647.86 154.082 647.663 153.394L647.294 152.656L645.155 154.058C644.614 154.599 644.023 155.115 643.384 155.607C642.794 156.099 642.4 156.443 642.204 156.64C642.056 156.836 641.884 157.009 641.687 157.156C641.54 157.304 641.367 157.377 641.171 157.377C640.974 157.377 640.802 157.377 640.654 157.377C640.507 157.377 640.433 157.377 640.433 157.377C640.433 157.574 640.187 157.82 639.695 158.115C639.252 158.41 638.711 158.656 638.072 158.853C637.482 159.05 636.941 159.148 636.449 159.148ZM635.711 155.164C636.006 155.164 636.523 154.943 637.26 154.5C638.047 154.008 638.908 153.443 639.843 152.803C640.826 152.164 641.687 151.525 642.425 150.885C643.212 150.246 643.753 149.754 644.048 149.41C644.245 149.213 644.564 148.893 645.007 148.45C645.45 147.959 645.843 147.541 646.188 147.196C647.319 145.917 648.106 144.516 648.548 142.991C648.991 141.417 648.942 140.187 648.401 139.302C648.204 138.761 647.958 138.466 647.663 138.417C647.368 138.368 646.753 138.54 645.819 138.933C645.228 139.278 644.491 139.942 643.605 140.925C642.769 141.86 641.859 142.966 640.876 144.245C639.941 145.475 639.056 146.754 638.22 148.082C637.383 149.41 636.695 150.639 636.154 151.77C635.613 152.902 635.342 153.787 635.342 154.426C635.342 154.623 635.391 154.795 635.49 154.943C635.637 155.09 635.711 155.164 635.711 155.164ZM676.263 151.728C675.181 151.921 674.466 151.4 674.119 150.163C673.771 148.926 673.867 147.226 674.409 145.062C674.64 144.598 674.834 144.154 674.988 143.729C675.143 143.265 675.22 142.898 675.22 142.627C675.375 142.125 675.568 141.545 675.8 140.888C676.07 140.193 676.341 139.555 676.611 138.975C676.882 138.357 677.075 137.951 677.191 137.758C677.346 137.758 677.5 137.623 677.655 137.352C677.848 137.082 677.945 136.811 677.945 136.541C677.945 136.232 678.002 135.884 678.118 135.497C678.273 135.111 678.428 134.84 678.582 134.686C678.582 134.493 678.659 134.28 678.814 134.048C678.969 133.816 679.046 133.623 679.046 133.468C679.046 133.314 679.085 133.179 679.162 133.063C679.278 132.947 679.336 132.811 679.336 132.657C679.684 132.039 680.128 131.13 680.669 129.932C681.249 128.696 681.809 127.401 682.35 126.049C682.93 124.696 683.413 123.498 683.799 122.455C684.186 121.411 684.379 120.774 684.379 120.542C684.456 120.233 684.572 120.001 684.727 119.846C684.881 119.691 685.113 119.653 685.422 119.73C685.577 119.614 685.732 119.556 685.886 119.556C686.041 119.518 686.195 119.498 686.35 119.498C686.35 119.498 686.408 119.576 686.524 119.73C686.678 119.885 686.891 120.117 687.161 120.426C687.471 120.696 687.644 121.005 687.683 121.353C687.722 121.701 687.741 122.107 687.741 122.571C687.702 123.305 687.432 124.136 686.93 125.063C686.427 125.991 685.867 127.015 685.248 128.135C684.862 128.87 684.476 129.565 684.089 130.222C683.741 130.879 683.567 131.285 683.567 131.44C683.567 131.594 683.49 131.826 683.336 132.135C683.181 132.444 683.007 132.831 682.814 133.295C682.582 133.681 682.331 134.145 682.06 134.686C681.79 135.227 681.539 135.729 681.307 136.193C681.113 136.618 681.017 136.889 681.017 137.004C680.978 137.159 680.92 137.314 680.843 137.468C680.804 137.623 680.708 137.777 680.553 137.932C680.398 137.932 680.302 138.048 680.263 138.28C680.263 138.473 680.263 138.57 680.263 138.57C680.263 138.724 680.167 139.091 679.973 139.671C679.819 140.212 679.548 140.869 679.162 141.642C678.428 143.69 677.906 145.333 677.597 146.569C677.288 147.767 677.094 148.791 677.017 149.641C676.94 150.569 676.862 151.11 676.785 151.265C676.747 151.419 676.573 151.574 676.263 151.728ZM673.133 161.003C672.399 161.274 671.781 161.409 671.278 161.409C670.815 161.37 670.293 161.138 669.713 160.713C668.979 160.018 668.728 159.322 668.96 158.626C669.23 157.892 669.868 157.177 670.872 156.482C671.568 156.057 672.07 155.825 672.38 155.786C672.727 155.747 673.249 155.883 673.945 156.192C675.104 156.926 675.606 157.738 675.452 158.626C675.336 159.515 674.563 160.307 673.133 161.003Z" fill="black"></path></svg>